<?xml version="1.0" encoding="UTF-8" standalone="no"?>
<!-- Created with Inkscape (http://www.inkscape.org/) -->

<svg
   version="1.1"
   id="svg2"
   xml:space="preserve"
   width="348.06567"
   height="58.409054"
   viewBox="0 0 348.06568 58.409054"
   sodipodi:docname="5cec14d333135cf1b43368fb75fa31f1.ai"
   xmlns:inkscape="http://www.inkscape.org/namespaces/inkscape"
   xmlns:sodipodi="http://sodipodi.sourceforge.net/DTD/sodipodi-0.dtd"
   xmlns="http://www.w3.org/2000/svg"
   xmlns:svg="http://www.w3.org/2000/svg"><defs
     id="defs6"><clipPath
       clipPathUnits="userSpaceOnUse"
       id="clipPath16"><path
         d="M 0,65.88 H 272.44 V 0 H 0 Z"
         id="path14" /></clipPath></defs><sodipodi:namedview
     id="namedview4"
     pagecolor="#ffffff"
     bordercolor="#666666"
     borderopacity="1.0"
     inkscape:pageshadow="2"
     inkscape:pageopacity="0.0"
     inkscape:pagecheckerboard="0" /><g
     id="g8"
     inkscape:groupmode="layer"
     inkscape:label="5cec14d333135cf1b43368fb75fa31f1"
     transform="matrix(1.3333333,0,0,-1.3333333,-9.135111,74.843145)"><g
       id="g10"><g
         id="g12"
         clip-path="url(#clipPath16)"><g
           id="g18"
           transform="translate(204.5552,36.5299)"><path
             d="m 0,0 c -0.129,-0.895 -0.258,-1.791 -0.388,-2.686 -0.336,-0.778 -0.326,-1.65 -0.456,-2.477 -0.415,-2.646 -0.73,-5.314 -1.153,-7.958 -0.524,-3.269 -0.96,-6.556 -1.491,-9.823 -0.121,-0.743 0.126,-0.662 0.524,-0.661 2.349,0.006 4.698,0.026 7.046,-0.014 0.548,-0.009 0.686,0.26 0.75,0.802 0.126,1.051 0.291,2.095 0.444,3.142 0.302,2.07 0.606,4.139 0.91,6.209 0.309,2.092 0.636,4.181 0.923,6.278 0.229,1.678 0.578,3.334 0.7,5.032 0.224,1.008 0.372,2.033 0.472,3.067 0.167,1.097 0.334,2.194 0.502,3.291 0.239,1.565 0.48,3.13 0.716,4.695 0.037,0.244 0.052,0.495 0.349,0.463 0.435,-0.047 0.856,0.131 1.28,0.134 3.026,0.022 6.051,0.008 9.077,0.018 C 20.56,9.514 20.704,9.373 20.637,8.964 20.494,8.078 20.341,7.194 20.209,6.305 19.857,3.919 19.52,1.531 19.166,-0.855 18.93,-2.443 18.676,-4.028 18.43,-5.614 c 0.062,-0.391 -0.083,-0.751 -0.133,-1.123 -0.248,-1.817 -0.531,-3.627 -0.768,-5.446 -0.073,-0.557 -0.313,-0.639 -0.737,-0.634 -2.121,0.023 -4.243,0.027 -6.364,0.003 -1.151,-0.013 -2.26,-0.745 -2.679,-2.232 -0.427,-1.515 -0.543,-3.092 -0.803,-4.639 -0.202,-1.197 -0.432,-2.397 -0.478,-3.626 -0.04,-0.322 0.162,-0.264 0.316,-0.265 3.333,-0.002 6.667,-0.001 10,-0.002 1.715,-0.008 3.434,-0.095 5.144,0.006 1.024,0.061 1.798,0.726 2.201,1.935 0.38,1.14 0.477,2.335 0.663,3.514 0.321,2.041 0.618,4.088 0.929,6.132 0.237,1.555 0.48,3.108 0.721,4.662 0.138,1.057 0.277,2.114 0.415,3.171 0.198,1.23 0.405,2.459 0.591,3.691 0.402,2.662 0.816,5.321 1.177,7.989 0.184,1.357 0.509,2.689 0.547,4.072 0.223,0.883 0.375,1.779 0.372,2.705 0.166,0.884 0.321,1.77 0.289,2.684 -0.045,1.281 -0.401,1.853 -1.497,2.031 -1.893,0.308 -3.803,0.097 -5.705,0.114 -3.021,0 -6.042,0.001 -9.063,0.002 L 10.99,19.139 C 9.015,19.143 7.039,19.168 5.065,19.141 4.206,19.13 3.487,18.763 3.005,17.844 2.221,16.349 2.121,14.648 1.865,12.996 1.451,10.335 1.064,7.668 0.672,5.003 0.48,3.694 0.233,2.396 0.139,1.069 -0.12,0.75 0.043,0.357 0,0 m 16.353,19.583 c 3.668,0 7.335,0.002 11.002,0 2.289,-10e-4 3.119,-1.076 2.819,-3.699 -0.395,-3.453 -0.915,-6.883 -1.461,-10.308 -0.467,-2.929 -0.834,-5.879 -1.268,-8.815 -0.43,-2.912 -0.894,-5.817 -1.333,-8.726 -0.425,-2.818 -0.806,-5.645 -1.267,-8.455 -0.45,-2.744 -1.407,-3.43 -3.465,-3.755 -0.411,-0.065 -0.798,0.153 -1.215,0.152 -4.388,-0.014 -8.777,-0.001 -13.165,0.004 -0.854,10e-4 -1.056,0.221 -0.929,1.179 0.198,1.495 0.445,2.981 0.672,4.471 0.174,1.141 0.28,2.298 0.598,3.404 0.475,1.657 1.597,2.591 3.103,2.591 2.039,0.001 4.079,0.016 6.118,-0.013 0.421,-0.006 0.571,0.173 0.63,0.617 0.403,3.037 0.866,6.062 1.333,9.087 0.461,2.979 0.842,5.974 1.266,8.96 0.106,0.746 0.248,1.485 0.361,2.23 0.053,0.343 0.083,0.59 -0.389,0.584 C 16.962,9.056 14.16,9.076 11.358,9.072 10.95,9.072 10.56,8.852 10.142,8.928 9.826,8.985 9.825,8.643 9.798,8.456 9.447,6.079 9.124,3.696 8.781,1.318 8.447,-0.991 8.096,-3.296 7.754,-5.603 7.436,-7.745 7.121,-9.888 6.805,-12.031 6.496,-14.128 6.187,-16.226 5.88,-18.323 c -0.229,-1.561 -0.47,-3.12 -0.677,-4.685 -0.115,-0.872 -0.225,-1.026 -0.958,-1.026 -2.452,-0.001 -4.903,-0.001 -7.355,0 -0.825,0 -0.914,0.172 -0.77,1.097 0.365,2.349 0.693,4.707 1.042,7.059 0.304,2.051 0.621,4.098 0.926,6.148 0.313,2.096 0.545,4.213 0.948,6.285 0.402,2.067 0.565,4.172 0.903,6.248 0.383,2.345 0.683,4.708 1.061,7.054 0.385,2.392 0.552,4.836 1.217,7.162 0.519,1.816 1.431,2.564 3.073,2.564 3.688,0 7.376,0 11.063,0"
             style="fill:#1f1955;fill-opacity:1;fill-rule:nonzero;stroke:none"
             id="path20" /></g><g
           id="g22"
           transform="translate(121.7026,47.7925)"><path
             d="M 0,0 C 0.163,1.326 0.454,2.629 0.517,3.972 0.768,4.409 0.641,4.902 0.63,5.36 0.603,6.473 0.003,7.37 -0.873,7.585 -1.52,7.743 -2.185,7.86 -2.844,7.875 -4.653,7.913 -6.463,7.89 -8.272,7.885 -8.451,7.884 -8.646,7.952 -8.801,7.78 -9.894,7.773 -10.986,7.766 -12.078,7.758 c -0.097,0.18 -0.255,0.127 -0.391,0.127 -5.251,0.003 -10.502,0.001 -15.752,0.007 -0.287,10e-4 -0.446,-0.03 -0.451,-0.451 -0.005,-0.44 -0.149,-0.875 -0.182,-1.317 -0.064,-0.879 -0.485,-1.721 -0.207,-2.635 -0.293,-0.313 -0.217,-0.757 -0.275,-1.141 -0.448,-2.994 -0.873,-5.992 -1.306,-8.989 -0.246,-0.607 -0.257,-1.277 -0.353,-1.919 -0.357,-2.37 -0.661,-4.75 -1.012,-7.121 -0.434,-2.926 -0.912,-5.844 -1.34,-8.771 -0.479,-3.279 -0.894,-6.57 -1.405,-9.842 -0.094,-0.603 0.066,-0.573 0.42,-0.572 2.203,0.006 4.406,0.003 6.609,0.003 1.08,0 1.116,-0.008 1.313,1.226 0.347,2.179 0.646,4.368 0.964,6.553 0.274,1.883 0.547,3.766 0.82,5.649 0.304,2.092 0.608,4.185 0.91,6.278 0.272,1.883 0.558,3.764 0.807,5.652 0.139,1.045 0.373,2.075 0.397,3.14 0.275,1.813 0.458,3.645 0.826,5.439 0.181,0 0.361,0.001 0.543,0.001 0.665,-0.133 1.334,-0.136 2.005,-0.093 0.205,-0.009 0.41,-0.024 0.616,-0.025 3.499,-0.011 6.999,-0.029 10.498,-0.022 0.485,10e-4 0.749,-0.046 0.554,-0.739 -0.132,-0.47 -0.137,-0.988 -0.199,-1.484 -0.281,-0.341 -0.205,-0.797 -0.27,-1.201 -0.204,-1.259 -0.374,-2.525 -0.558,-3.788 -0.051,-0.432 -0.26,-0.546 -0.631,-0.544 -2.802,0.016 -5.604,0.005 -8.406,0.003 -0.329,0.002 -0.658,10e-4 -0.986,0.006 -2.049,0.035 -2.737,-1.258 -3.058,-2.952 -0.44,-2.319 -0.641,-4.699 -1.052,-7.027 -0.148,-0.843 0.089,-0.893 0.635,-0.803 5.621,-0.004 11.243,-0.025 16.864,0.006 0.928,0.005 1.715,0.511 2.188,1.519 0.424,0.802 0.539,1.708 0.672,2.615 0.299,2.043 0.624,4.08 0.933,6.121 0.273,1.809 0.539,3.62 0.808,5.43 C -0.337,-2.605 -0.088,-1.317 0,0 M -14.648,8.322 C -11.268,8.227 -7.047,8.368 -2.826,8.303 -1.983,8.291 -1.12,8.247 -0.309,7.83 0.621,7.352 0.954,6.467 1.01,5.384 1.081,3.984 0.76,2.632 0.577,1.265 c -0.341,-2.55 -0.681,-5.101 -1.052,-7.646 -0.333,-2.284 -0.707,-4.559 -1.062,-6.838 -0.232,-1.488 -0.343,-3.003 -0.781,-4.444 -0.426,-1.401 -1.58,-2.376 -2.855,-2.376 -5.685,-10e-4 -11.371,-10e-4 -17.056,0 -0.855,0 -0.966,0.219 -0.809,1.215 0.333,2.115 0.623,4.24 0.931,6.361 0.205,1.413 0.526,2.754 1.666,3.575 0.459,0.33 0.954,0.514 1.502,0.514 3.09,-0.005 6.18,0.007 9.269,-0.013 0.508,-0.003 0.742,0.031 0.844,0.782 0.244,1.796 0.476,3.603 0.899,5.361 0.125,0.52 0.021,0.692 -0.482,0.693 -4.139,0.006 -8.277,0.043 -12.415,0.09 -0.435,0.005 -0.623,-0.078 -0.697,-0.664 -0.457,-3.619 -0.945,-7.233 -1.462,-10.84 -0.591,-4.127 -1.237,-8.242 -1.835,-12.367 -0.436,-3.007 -0.832,-6.022 -1.247,-9.033 -0.082,-0.599 -0.262,-0.964 -0.907,-0.952 -2.492,0.046 -4.984,0.017 -7.477,0.02 -0.717,0 -0.842,0.23 -0.713,1.049 0.329,2.092 0.631,4.19 0.938,6.287 0.309,2.121 0.609,4.244 0.917,6.366 0.311,2.143 0.622,4.287 0.94,6.429 0.355,2.399 0.703,4.799 1.082,7.193 0.618,3.899 1.233,7.8 1.711,11.726 0.165,1.36 0.442,2.699 0.547,4.068 0.023,0.31 0.171,0.479 0.436,0.495 0.165,0.01 0.33,0.006 0.495,0.006 4.202,0 8.404,0 13.448,0"
             style="fill:#221e58;fill-opacity:1;fill-rule:nonzero;stroke:none"
             id="path24" /></g><g
           id="g26"
           transform="translate(169.8779,43.5572)"><path
             d="m 0,0 c -0.139,-0.938 -0.308,-1.871 -0.407,-2.814 -0.096,-0.918 -0.4,-1.82 -0.244,-2.759 0.356,-2.149 0.738,-4.292 1.11,-6.438 0.005,-0.236 -0.017,-0.479 0.021,-0.708 0.268,-1.613 0.543,-3.225 0.827,-4.835 0.238,-1.348 0.491,-2.692 0.737,-4.038 0.015,-0.847 0.23,-1.654 0.377,-2.473 0.267,-1.499 0.434,-3.024 0.859,-4.482 0.362,-1.241 1.203,-2.072 2.158,-2.079 1.747,-0.012 3.494,-0.002 5.24,-0.005 0.188,0 0.39,-0.024 0.49,0.198 0.624,1.372 1.344,2.685 1.884,4.109 2.078,4.344 4.155,8.687 6.296,13.163 0,-0.256 0.012,-0.353 -0.002,-0.445 -0.243,-1.625 -0.491,-3.249 -0.735,-4.874 -0.313,-2.091 -0.624,-4.182 -0.937,-6.274 -0.263,-1.766 -0.531,-3.531 -0.788,-5.299 -0.048,-0.334 -0.018,-0.587 0.394,-0.584 2.492,0.019 4.984,0.013 7.477,0.005 0.271,-10e-4 0.388,0.068 0.415,0.429 0.053,0.704 0.172,1.402 0.272,2.101 0.315,2.186 0.635,4.372 0.953,6.558 0.274,1.883 0.564,3.764 0.82,5.651 0.181,1.326 0.477,2.633 0.515,3.984 0.287,2.018 0.573,4.036 0.859,6.054 0.083,0.133 0.142,0.264 0.163,0.443 0.154,1.297 0.31,2.593 0.498,3.884 0.314,2.162 0.653,4.319 0.978,6.479 0.328,2.183 0.649,4.367 0.976,6.551 0.062,0.415 0.03,0.641 -0.441,0.635 -2.427,-0.03 -4.855,-0.016 -7.283,-0.011 -0.259,0.001 -0.43,-0.04 -0.581,-0.361 C 22.027,9.91 21.115,8.08 20.22,6.239 19.493,4.742 18.737,3.263 18.056,1.738 c -0.466,-1.045 -1.094,-1.993 -1.4,-3.133 -1.695,-3.51 -3.39,-7.02 -5.084,-10.53 -0.845,-1.339 -1.382,-2.888 -2.156,-4.275 -0.182,-0.326 -0.221,-0.973 -0.537,-0.919 -0.279,0.047 -0.192,0.695 -0.279,1.072 -0.298,1.293 -0.333,2.654 -0.747,3.918 C 7.106,-7.63 6.358,-3.131 5.611,1.368 5.559,2.502 5.329,3.603 5.124,4.705 4.809,6.404 4.704,8.168 4.124,9.786 3.763,10.794 3.251,11.726 2.258,12.065 1.965,12.164 1.624,12.261 1.553,11.711 1.427,10.732 1.314,9.75 1.177,8.773 0.917,6.913 0.632,5.058 0.38,3.196 0.237,2.134 0.002,1.085 0,0 m 18.453,-16.013 c -0.487,-1.006 -0.944,-1.925 -1.382,-2.856 -1.751,-3.726 -3.505,-7.449 -5.235,-11.188 -0.337,-0.729 -0.737,-1.069 -1.495,-1.03 -1.542,0.079 -3.091,0.085 -4.633,0.005 -1.322,-0.069 -2.393,0.916 -2.802,2.373 -0.538,1.92 -0.755,3.921 -1.105,5.888 -0.584,3.287 -1.208,6.568 -1.662,9.88 -0.35,2.551 -0.87,5.062 -1.193,7.615 -0.118,0.934 0.177,1.841 0.291,2.757 0.38,3.051 0.781,6.099 1.205,9.142 0.248,1.774 0.557,3.535 0.739,5.321 0.042,0.411 0.258,0.628 0.615,0.664 C 2.436,12.622 2.952,12.322 3.4,11.829 4.384,10.748 4.78,9.349 5.016,7.847 5.315,5.941 5.711,4.054 5.961,2.14 6.541,-2.307 7.4,-6.69 8.107,-11.108 c 0.257,-1.606 0.598,-3.193 0.907,-4.819 0.408,0.409 0.574,1.011 0.828,1.526 1.986,4.019 3.993,8.026 5.891,12.101 1.17,2.513 2.351,5.02 3.54,7.52 1.071,2.252 2.18,4.479 3.251,6.731 0.22,0.463 0.496,0.619 0.939,0.615 2.451,-0.019 4.903,-0.008 7.354,-0.01 0.713,0 0.881,-0.199 0.768,-1.044 C 31.39,10.04 31.154,8.575 30.939,7.106 30.66,5.196 30.407,3.28 30.103,1.375 c -0.408,-2.556 -0.712,-5.132 -1.152,-7.684 -0.351,-2.034 -0.67,-4.082 -0.84,-6.16 -0.122,-1.502 -0.42,-2.985 -0.637,-4.477 -0.318,-2.191 -0.632,-4.382 -0.951,-6.572 -0.316,-2.167 -0.618,-4.337 -0.96,-6.498 -0.166,-1.054 -0.2,-1.047 -1.108,-1.047 -2.349,0 -4.697,0 -7.045,0 -0.87,0 -1.024,0.17 -0.895,1.184 0.156,1.216 0.373,2.42 0.552,3.631 0.313,2.12 0.616,4.242 0.924,6.363 0.146,1.002 0.287,2.005 0.449,3.004 0.042,0.258 0.054,0.504 0.013,0.868"
             style="fill:#221e58;fill-opacity:1;fill-rule:nonzero;stroke:none"
             id="path28" /></g><g
           id="g30"
           transform="translate(51.9951,30.3699)"><path
             d="m 0,0 c 0.288,-0.007 0.576,-0.021 0.864,-0.021 6.159,-10e-4 12.319,-10e-4 18.478,-10e-4 0.103,0 0.208,0.016 0.308,-0.003 0.357,-0.07 0.496,0.102 0.548,0.518 0.228,1.82 0.756,3.586 0.702,5.46 C 20.87,7.006 20.558,7.605 19.683,7.884 18.902,8.133 18.1,8.082 17.284,8.071 12.258,7.999 7.232,8.041 2.206,8.025 1.761,8.024 1.684,8.216 1.753,8.664 c 0.329,2.136 0.652,4.272 0.964,6.411 0.042,0.283 0.128,0.466 0.381,0.443 0.475,-0.043 0.934,0.139 1.4,0.141 3.337,0.018 6.674,0.006 10.011,0.015 0.373,0.001 0.498,-0.082 0.41,-0.576 -0.262,-1.478 -0.469,-2.969 -0.692,-4.456 -0.06,-0.398 0.027,-0.607 0.446,-0.599 1.442,0.03 2.884,-0.006 4.326,0.019 0.681,0.012 1.4,0.171 1.841,0.78 0.808,1.117 1.091,2.501 1.145,3.946 0.352,2.401 0.698,4.803 1.056,7.202 0.343,2.3 -0.368,3.307 -2.362,3.319 -0.123,10e-4 -0.247,10e-4 -0.37,10e-4 C 16.254,25.301 12.2,25.299 8.145,25.28 4.916,25.266 1.686,25.23 -1.543,25.205 c -0.585,-0.004 -1.151,-0.076 -1.6,-0.584 -0.537,-0.253 -0.741,-0.82 -0.926,-1.385 -0.341,-1.04 -0.525,-2.125 -0.682,-3.222 -0.286,-2 -0.622,-3.99 -0.929,-5.986 C -6.041,11.684 -6.408,9.341 -6.742,6.991 -6.926,5.69 -7.253,4.413 -7.268,3.081 -7.416,0.949 -6.795,0.035 -5.06,-0.011 -3.375,-0.056 -1.687,-0.008 0,0 m 2.179,8.47 h 0.658 c 4.675,0 9.351,-0.021 14.027,0.02 0.811,0.007 1.613,0.106 2.432,0 0.905,-0.117 2.016,-1.03 2.005,-2.41 -0.015,-2.071 -0.504,-4.028 -0.774,-6.037 -0.046,-0.348 -0.212,-0.499 -0.501,-0.5 -0.144,0 -0.289,-0.001 -0.433,-0.001 -8.095,0 -16.19,0 -24.285,0.002 -0.268,0 -0.539,-0.011 -0.802,0.034 -1.547,0.262 -2.212,1.189 -2.201,3.02 0.01,1.578 0.366,3.095 0.593,4.635 0.343,2.329 0.694,4.656 1.047,6.984 0.301,1.979 0.608,3.956 0.913,5.934 0.151,0.978 0.325,1.947 0.573,2.902 0.484,1.864 1.577,2.62 3.168,2.637 2.883,0.032 5.767,0.032 8.65,0.038 4.366,0.009 8.733,0.011 13.1,0.016 0.103,0 0.206,0.001 0.309,0 2.291,-0.005 3.177,-1.264 2.769,-3.895 -0.354,-2.284 -0.722,-4.566 -1.006,-6.861 -0.135,-1.085 -0.279,-2.14 -0.606,-3.18 -0.467,-1.486 -1.403,-2.125 -2.661,-2.174 -1.564,-0.061 -3.13,-0.006 -4.696,-0.02 -0.456,-0.004 -0.621,0.227 -0.614,0.74 0.014,1.077 0.266,2.111 0.436,3.154 0.282,1.735 0.328,1.725 -1.13,1.725 -2.678,0 -5.356,0.009 -8.034,-0.006 C 4.526,15.223 3.936,15.135 3.345,15.09 3.219,15.08 3.121,15.08 3.092,14.876 2.796,12.757 2.49,10.64 2.179,8.47"
             style="fill:#221e58;fill-opacity:1;fill-rule:nonzero;stroke:none"
             id="path32" /></g><g
           id="g34"
           transform="translate(249.5168,50.2197)"><path
             d="m 0,0 c -0.346,-1.124 -0.325,-2.326 -0.55,-3.476 -0.048,-0.347 -0.096,-0.694 -0.145,-1.04 -0.236,-1.638 -0.514,-3.269 -0.693,-4.915 -0.11,-1.007 -0.468,-1.992 -0.178,-3.055 0.405,-1.487 0.738,-3 1.113,-4.498 0.288,-1.152 0.447,-2.347 0.866,-3.454 0.017,-0.234 0.045,-0.457 0.104,-0.692 0.399,-1.596 0.754,-3.206 1.139,-4.807 0.693,-2.886 1.366,-5.778 2.109,-8.646 0.353,-1.367 1.031,-2.579 2.377,-2.677 1.724,-0.125 3.459,-0.024 5.189,-0.029 0.377,-10e-4 0.531,0.191 0.59,0.628 0.277,2.066 0.575,4.128 0.88,6.189 0.313,2.105 0.651,4.204 0.963,6.309 0.285,1.92 0.552,3.844 0.827,5.765 0.055,0.393 0.107,0.787 0.166,1.179 0.273,1.817 0.554,3.632 0.82,5.45 0.144,0.987 0.263,1.979 0.394,2.97 0.191,1.097 0.42,2.187 0.472,3.311 0.496,3.367 0.984,6.735 1.495,10.099 0.081,0.536 0.04,0.764 -0.511,0.756 C 15.1,5.333 12.773,5.342 10.445,5.362 10.01,5.366 9.859,5.227 9.79,4.697 9.498,2.452 9.148,0.217 8.819,-2.021 8.535,-3.396 8.324,-4.784 8.226,-6.194 7.96,-6.912 7.968,-7.695 7.845,-8.446 7.54,-10.303 7.242,-12.163 7.029,-14.035 6.967,-14.581 6.564,-15.176 7.014,-15.744 6.935,-15.759 6.855,-15.774 6.776,-15.789 6.537,-14.462 6.184,-13.17 5.873,-11.865 5.31,-9.502 4.775,-7.13 4.228,-4.761 4.191,-4.628 4.157,-4.494 4.118,-4.362 3.758,-3.156 3.661,-1.856 3.156,-0.702 2.837,0.723 2.603,2.179 2.023,3.507 1.734,4.168 1.357,4.736 0.685,4.974 0.452,3.288 0.226,1.644 0,0 m 6.68,-13.393 c 0.197,1.189 0.379,2.198 0.53,3.214 0.335,2.259 0.65,4.522 0.983,6.781 0.409,2.775 0.845,5.544 1.231,8.324 0.094,0.676 0.334,0.936 0.917,0.931 2.41,-0.021 4.82,-0.005 7.23,-0.011 0.779,-0.002 0.898,-0.156 0.767,-1.073 -0.461,-3.209 -0.989,-6.406 -1.39,-9.625 -0.359,-2.88 -0.816,-5.739 -1.211,-8.611 -0.402,-2.916 -0.894,-5.815 -1.323,-8.726 -0.396,-2.679 -0.753,-5.366 -1.141,-8.047 -0.303,-2.097 -0.607,-4.195 -0.951,-6.284 -0.2,-1.215 -0.236,-1.207 -1.346,-1.207 -1.36,0 -2.725,0.092 -4.077,-0.021 -2.008,-0.168 -3.044,1.252 -3.504,2.972 -0.749,2.805 -1.409,5.643 -2.087,8.474 -0.863,3.606 -1.705,7.219 -2.56,10.827 -0.173,0.732 -0.332,1.471 -0.555,2.182 -0.43,1.371 -0.154,2.717 0.037,4.069 0.271,1.912 0.545,3.823 0.825,5.733 0.408,2.791 0.825,5.58 1.233,8.37 C 0.377,5.49 0.666,5.558 1.085,5.31 1.89,4.834 2.307,3.987 2.632,3.066 2.787,2.627 2.888,2.16 3.01,1.705 4.334,-3.229 5.42,-8.241 6.68,-13.393"
             style="fill:#24225a;fill-opacity:1;fill-rule:nonzero;stroke:none"
             id="path36" /></g><g
           id="g38"
           transform="translate(151.1217,24.8311)"><path
             d="m 0,0 c 0.216,1.359 0.448,2.715 0.641,4.079 0.127,0.899 0.378,1.778 0.353,2.704 0.304,2.051 0.608,4.103 0.912,6.154 0.074,0.267 0.178,0.527 0.219,0.8 0.425,2.882 0.827,5.768 1.26,8.648 0.423,2.805 0.873,5.605 1.32,8.464 -2.589,0 -5.12,-0.022 -7.65,0.017 -0.558,0.009 -0.669,-0.278 -0.741,-0.811 -0.215,-1.583 -0.462,-3.16 -0.7,-4.739 C -4.684,23.343 -4.988,21.37 -5.285,19.397 -5.6,17.307 -5.926,15.22 -6.215,13.125 -6.4,11.775 -6.709,10.447 -6.762,9.073 -6.889,8.245 -7.016,7.416 -7.144,6.588 -7.501,5.134 -7.625,3.629 -7.875,2.151 -8.081,0.862 -8.334,-0.421 -8.473,-1.72 c -0.055,-0.517 -0.218,-0.548 -0.565,-0.545 -1.585,0.01 -3.17,-0.002 -4.755,-0.006 -4.445,0.004 -8.889,-0.013 -13.333,0.033 -0.68,0.007 -0.834,-0.29 -0.921,-0.977 -0.237,-1.863 -0.559,-3.712 -0.805,-5.574 -0.177,-1.348 0,-2.655 1.034,-3.008 0.367,-0.125 0.736,-0.252 1.127,-0.251 3.868,0.004 7.736,0.006 11.605,0.008 3.181,-0.002 6.362,-0.007 9.543,-0.006 0.588,0 1.181,-0.06 1.754,0.165 0.428,-0.084 0.798,0.118 1.126,0.382 0.969,0.778 1.2,2.041 1.44,3.246 0.309,1.54 0.517,3.108 0.747,4.669 C -0.3,-2.393 -0.157,-1.195 0,0 m -15.671,-12.48 c -3.687,0 -7.374,-0.009 -11.061,0.007 -0.743,0.003 -1.465,0.149 -2.019,0.833 -0.657,0.81 -0.603,1.833 -0.498,2.778 0.229,2.062 0.593,4.103 0.871,6.158 0.097,0.714 0.393,0.896 0.996,0.893 5.974,-0.026 11.947,-0.006 17.921,-0.034 0.483,-0.003 0.64,0.22 0.702,0.672 0.448,3.276 1.037,6.524 1.505,9.795 0.585,4.083 1.194,8.16 1.828,12.233 0.492,3.163 0.923,6.339 1.379,9.51 0.087,0.609 0.287,0.947 0.92,0.936 2.492,-0.046 4.985,-0.017 7.477,-0.02 C 5.068,31.28 5.112,31.195 4.991,30.372 4.525,27.179 4.096,23.978 3.599,20.791 3.217,18.349 2.915,15.887 2.466,13.465 2.081,11.385 1.729,9.297 1.472,7.198 1.092,4.105 0.594,1.037 0.13,-2.037 c -0.375,-2.488 -0.57,-5.028 -1.235,-7.445 -0.717,-2.603 -1.517,-2.93 -3.566,-2.975 -3.665,-0.081 -7.333,-0.023 -11,-0.023"
             style="fill:#1f1955;fill-opacity:1;fill-rule:nonzero;stroke:none"
             id="path40" /></g><g
           id="g42"
           transform="translate(38.5198,29.4936)"><path
             d="m 0,0 c 0.165,1.175 0.331,2.35 0.496,3.525 0.038,0.082 0.098,0.16 0.11,0.246 0.217,1.513 0.42,3.029 0.642,4.541 0.444,3.022 0.903,6.042 1.344,9.065 0.401,2.744 0.776,5.494 1.19,8.236 0.064,0.423 -0.075,0.543 -0.358,0.543 -1.192,-10e-4 -2.388,0.138 -3.575,-0.103 -1.104,0.01 -2.208,0.023 -3.312,0.029 -0.84,0.004 -0.84,0 -0.974,-1.01 -0.041,-0.079 -0.108,-0.153 -0.12,-0.237 -0.3,-2.139 -0.584,-4.281 -0.893,-6.419 -0.396,-2.739 -0.846,-5.468 -1.195,-8.215 -0.081,-0.637 -0.27,-0.724 -0.727,-0.722 -2.858,0.015 -5.716,0.009 -8.573,0.004 -0.239,0 -0.499,0.087 -0.702,-0.152 -1.11,-0.281 -1.571,-1.278 -1.751,-2.407 -0.388,-2.427 -0.692,-4.873 -1.004,-7.315 -0.117,-0.909 -0.084,-0.915 0.724,-0.915 3.233,0 6.467,-0.009 9.701,0.009 0.513,0.003 0.633,-0.158 0.517,-0.757 -0.227,-1.181 -0.382,-2.381 -0.557,-3.575 -0.49,-3.348 -0.972,-6.697 -1.468,-10.043 -0.133,-0.896 -0.151,-0.893 0.649,-0.893 0.412,0 0.824,-0.016 1.236,0.003 0.984,0.047 1.975,-0.127 2.954,0.106 0.909,-0.25 1.832,-0.035 2.745,-0.116 0.474,-0.043 0.725,0.085 0.698,0.734 -0.017,0.404 0.184,0.816 0.195,1.228 0.018,0.689 0.314,1.342 0.18,2.045 0.073,0.318 0.192,0.611 0.236,0.951 0.204,1.587 0.478,3.162 0.676,4.751 0.127,1.024 0.394,2.028 0.352,3.078 C -0.25,-2.549 -0.028,-1.294 0,0 m -14.3,-1.741 c -1.627,0 -3.255,-0.002 -4.882,0.002 -0.631,0.001 -0.809,0.197 -0.715,0.89 0.357,2.638 0.711,5.278 1.114,7.907 0.254,1.655 1.337,2.958 3.074,2.891 2.696,-0.102 5.397,-0.021 8.095,-0.034 0.367,-0.002 0.527,0.019 0.598,0.566 0.451,3.458 0.928,6.913 1.477,10.352 0.267,1.675 0.442,3.37 0.811,5.025 0.118,0.526 0.324,0.717 0.759,0.718 2.41,0.003 4.82,0.026 7.23,0.023 C 4.14,26.598 4.264,26.343 4.112,25.32 3.755,22.921 3.439,20.513 3.092,18.112 2.738,15.665 2.357,13.223 2.007,10.776 1.696,8.606 1.47,6.418 1.095,4.265 0.835,2.768 0.609,1.269 0.404,-0.239 c -0.438,-3.222 -0.926,-6.435 -1.381,-9.654 -0.303,-2.146 -0.583,-4.297 -0.878,-6.445 -0.06,-0.441 -0.286,-0.663 -0.678,-0.663 -2.637,0.003 -5.274,0 -7.91,0.003 -0.456,0.001 -0.59,0.229 -0.505,0.783 0.375,2.419 0.706,4.847 1.061,7.27 0.316,2.166 0.638,4.332 0.97,6.495 0.078,0.502 0.051,0.744 -0.501,0.727 -1.627,-0.05 -3.255,-0.018 -4.882,-0.018"
             style="fill:#221e58;fill-opacity:1;fill-rule:nonzero;stroke:none"
             id="path44" /></g><g
           id="g46"
           transform="translate(6.8903,13.3627)"><path
             d="m 0,0 c -0.166,2.02 0.234,3.971 0.529,5.936 0.314,2.096 0.624,4.192 0.934,6.289 0.307,2.074 0.609,4.149 0.917,6.224 0.227,1.537 0.434,3.079 0.696,4.608 0.748,4.352 1.3,8.769 3.321,12.68 1.749,3.387 4.116,5.772 7.496,6.652 0.928,0.242 1.871,0.286 2.806,0.3 2.884,0.044 5.769,0.018 8.654,0.015 0.771,-10e-4 0.844,-0.172 0.75,-1.087 -0.257,-2.517 -0.675,-5.003 -1.022,-7.503 -0.129,-0.934 -0.206,-1.011 -1.029,-1.011 -1.998,0 -3.997,0.024 -5.996,-0.01 C 17.022,33.076 16.041,32.77 15.164,32.081 14.042,31.2 13.552,29.821 13.088,28.45 12.434,26.52 12.283,24.448 11.979,22.422 11.665,20.325 11.374,18.223 11.071,16.124 10.798,14.236 10.52,12.349 10.246,10.462 9.942,8.363 9.64,6.263 9.337,4.164 9.145,2.835 8.936,1.51 8.768,0.178 8.653,-0.733 8.555,-0.869 7.765,-0.869 5.334,-0.87 2.902,-0.871 0.471,-0.868 0.227,-0.867 -0.12,-0.991 0,-0.438 c 2.576,0.002 5.152,0.005 7.727,0.006 0.263,0 0.537,-0.064 0.588,0.398 0.122,1.123 0.408,2.217 0.422,3.359 0.231,0.424 0.166,0.919 0.244,1.379 0.049,0.28 0.105,0.558 0.146,0.839 0.309,2.127 0.614,4.255 0.923,6.382 0.351,2.407 0.704,4.814 1.058,7.221 0.367,2.499 0.737,4.998 1.105,7.497 0.085,0.388 0.166,0.776 0.255,1.163 0.319,1.391 0.857,2.675 1.627,3.785 0.942,1.359 2.282,1.893 3.734,1.935 2.059,0.059 4.12,0.04 6.18,-0.004 0.504,-0.011 0.629,0.254 0.695,0.715 0.108,0.745 0.23,1.486 0.33,2.232 0.184,1.376 0.357,2.755 0.535,4.132 l -0.004,-0.008 c 0.109,0.045 0.104,0.104 0.016,0.174 0.039,0.258 0.059,0.523 0.12,0.774 0.135,0.555 -0.047,0.708 -0.514,0.679 C 24.531,42.179 23.87,42.218 23.212,42.208 20.62,42.17 18.026,42.3 15.435,42.132 14.453,42.182 13.539,41.825 12.639,41.445 11.013,40.759 9.537,39.793 8.447,38.168 8.246,37.896 8.035,37.633 7.845,37.351 5.146,33.34 4.247,28.583 3.679,23.69 3.365,23.203 3.416,22.605 3.331,22.055 2.919,19.402 2.519,16.745 2.149,14.084 1.999,13 1.632,11.939 1.825,10.807 1.755,10.773 1.63,10.749 1.624,10.702 1.529,10.041 1.45,9.377 1.367,8.713 1.112,7.046 0.862,5.379 0.602,3.713 0.408,2.474 0.201,1.238 0,0"
             style="fill:#24225a;fill-opacity:1;fill-rule:nonzero;stroke:none"
             id="path48" /></g><g
           id="g50"
           transform="translate(6.8903,13.3627)"><path
             d="m 0,0 c 0.201,1.238 0.408,2.474 0.602,3.713 0.26,1.666 0.51,3.333 0.765,5 C 1.473,8.539 1.58,8.366 1.685,8.191 3.402,5.324 5.751,3.698 8.737,3.325 8.723,2.183 8.437,1.089 8.315,-0.034 8.264,-0.496 7.99,-0.432 7.727,-0.432 5.152,-0.433 2.576,-0.436 0,-0.438 0,-0.292 0,-0.146 0,0"
             style="fill:#8c57a3;fill-opacity:1;fill-rule:nonzero;stroke:none"
             id="path52" /></g><g
           id="g54"
           transform="translate(240.0045,51.0781)"><path
             d="m 0,0 c -0.245,-0.539 -0.224,-1.144 -0.312,-1.721 -0.089,-0.576 -0.182,-1.15 -0.266,-1.727 -0.268,-1.822 -0.531,-3.645 -0.798,-5.467 -0.268,-1.822 -0.54,-3.643 -0.81,-5.465 -0.239,-1.614 -0.495,-3.224 -0.709,-4.843 -0.191,-1.443 -0.495,-2.866 -0.562,-4.331 -0.275,-1.687 -0.574,-3.369 -0.821,-5.061 -0.439,-2.998 -0.819,-6.008 -1.29,-9 -0.091,-0.577 0.082,-0.534 0.4,-0.533 2.428,0.002 4.856,0.017 7.284,-0.014 0.442,-0.006 0.564,0.239 0.628,0.636 0.026,0.163 -0.001,0.337 0.023,0.501 0.548,3.812 1.1,7.623 1.652,11.434 0.311,2.126 0.625,4.252 0.933,6.379 0.264,1.826 0.518,3.655 0.781,5.482 0.273,1.895 0.549,3.79 0.827,5.684 0.197,1.338 0.399,2.675 0.599,4.012 0.053,1.024 0.352,2.009 0.361,3.04 C 8.151,0.655 8.364,2.307 8.625,3.949 8.692,4.366 8.663,4.503 8.277,4.501 5.869,4.488 3.461,4.487 1.053,4.502 0.739,4.504 0.602,4.36 0.557,4.03 0.371,2.687 0.186,1.343 0,0 m -1.515,-38.585 c -1.277,0 -2.555,-0.005 -3.832,0.002 -0.597,0.003 -0.757,0.263 -0.656,0.942 0.412,2.772 0.808,5.546 1.22,8.317 0.398,2.678 0.818,5.352 1.209,8.031 0.392,2.681 0.75,5.368 1.141,8.049 0.349,2.4 0.729,4.794 1.082,7.193 0.267,1.818 0.445,3.658 0.789,5.455 0.318,1.659 0.519,3.337 0.792,5.001 C 0.313,4.908 0.594,4.989 0.946,4.989 3.439,4.99 5.932,4.987 8.424,4.992 8.974,4.993 9.145,4.692 9.052,4.081 8.816,2.55 8.548,1.022 8.389,-0.521 8.119,-3.155 7.67,-5.754 7.324,-8.373 6.963,-11.105 6.52,-13.823 6.125,-16.55 c -0.347,-2.401 -0.672,-4.808 -1.019,-7.209 -0.354,-2.447 -0.731,-4.89 -1.083,-7.337 -0.309,-2.146 -0.608,-4.294 -0.887,-6.445 -0.117,-0.907 -0.214,-1.043 -1.005,-1.044 -1.215,0 -2.431,0 -3.646,0"
             style="fill:#24225a;fill-opacity:1;fill-rule:nonzero;stroke:none"
             id="path56" /></g><g
           id="g58"
           transform="translate(158.3784,31.4846)"><path
             d="m 0,0 c -0.092,-0.235 -0.155,-0.469 -0.19,-0.735 -0.176,-1.342 -0.39,-2.678 -0.591,-4.016 -0.253,-1.703 -0.515,-3.405 -0.755,-5.11 -0.381,-2.7 -0.7,-5.412 -1.152,-8.095 -0.125,-0.741 0.14,-0.601 0.483,-0.601 2.348,0 4.696,0.028 7.043,-0.019 0.594,-0.012 0.744,0.24 0.804,0.857 0.098,1.021 0.286,2.029 0.416,3.046 0.183,1.434 0.488,2.847 0.562,4.301 0.107,0.065 0.105,0.185 0.122,0.304 0.231,1.65 0.492,3.295 0.692,4.95 0.213,1.766 0.595,3.503 0.679,5.291 0.531,3.676 1.061,7.353 1.591,11.029 0.236,0.256 0.178,0.637 0.222,0.937 0.591,3.995 1.14,7.998 1.707,12.054 -2.638,0 -5.272,-0.001 -7.907,10e-4 -0.185,0 -0.288,-0.046 -0.323,-0.308 C 3.168,22.137 2.918,20.391 2.663,18.646 2.357,16.553 2.022,14.465 1.736,12.368 1.566,11.12 1.297,9.888 1.264,8.617 0.843,5.745 0.421,2.872 0,0 m 1.347,-18.99 c -1.277,0 -2.554,-0.005 -3.831,0.002 -0.571,0.003 -0.747,0.252 -0.654,0.883 0.617,4.217 1.236,8.433 1.852,12.65 0.248,1.7 0.41,3.424 0.754,5.098 0.555,2.701 0.891,5.444 1.254,8.179 0.345,2.594 0.716,5.182 1.081,7.772 0.339,2.401 0.725,4.793 1.086,7.19 C 2.934,23.087 3.01,23.414 3,23.692 2.969,24.56 3.356,24.649 3.962,24.641 6.351,24.613 8.74,24.63 11.129,24.63 12.1,24.629 12.1,24.612 11.942,23.502 11.559,20.821 11.21,18.133 10.814,15.454 10.315,12.079 9.763,8.714 9.27,5.337 8.893,2.753 8.586,0.155 8.223,-2.433 7.879,-4.881 7.493,-7.321 7.143,-9.768 c -0.35,-2.448 -0.68,-4.901 -1.017,-7.352 -0.049,-0.351 -0.081,-0.705 -0.143,-1.052 -0.095,-0.54 -0.292,-0.864 -0.868,-0.837 -1.254,0.059 -2.512,0.019 -3.768,0.019"
             style="fill:#221e58;fill-opacity:1;fill-rule:nonzero;stroke:none"
             id="path60" /></g><g
           id="g62"
           transform="translate(68.2061,13.2042)"><path
             d="m 0,0 c 0.486,0.158 0.758,0.579 0.989,1.065 0.449,0.943 0.687,1.965 0.851,3.014 0.545,3.504 1.064,7.014 1.651,10.509 0.096,0.569 -0.063,0.54 -0.391,0.539 -2.451,-0.003 -4.903,-0.019 -7.354,0.015 -0.408,0.005 -0.507,-0.248 -0.557,-0.565 -0.227,-1.463 -0.451,-2.928 -0.63,-4.399 -0.072,-0.59 -0.226,-0.833 -0.793,-0.828 -3.296,0.028 -6.592,0.002 -9.888,-0.006 -0.303,0.008 -0.61,0.056 -0.908,0.015 -0.502,-0.07 -0.772,0.09 -0.679,0.736 0.22,1.407 0.406,2.824 0.68,4.217 0.093,0.474 0.007,0.531 -0.341,0.529 -1.639,-0.008 -3.281,0.042 -4.918,-0.024 -0.775,-0.031 -1.431,-0.456 -1.713,-1.402 -0.039,-0.051 -0.091,-0.094 -0.115,-0.152 -0.633,-1.524 -0.724,-3.2 -0.987,-4.826 -0.302,-1.864 -0.584,-3.734 -0.829,-5.609 -0.164,-1.262 -0.02,-2.645 1.033,-2.994 0.406,-0.135 0.812,-0.257 1.24,-0.256 7.285,0.002 14.569,-0.006 21.853,0.015 C -1.198,-0.405 -0.561,-0.381 0,0 m -17.34,9.8 h 1.642 c 3.07,0 6.139,0.01 9.209,-0.011 0.458,-0.003 0.622,0.117 0.685,0.692 0.159,1.453 0.414,2.892 0.634,4.336 0.085,0.558 0.345,0.763 0.859,0.756 2.492,-0.033 4.985,-0.013 7.478,-0.016 0.727,0 0.861,-0.23 0.731,-1.035 C 3.448,11.734 3.045,8.937 2.573,6.155 2.336,4.764 2.215,3.342 1.792,1.997 0.994,-0.539 0.243,-0.801 -1.567,-0.82 c -7.458,-0.079 -14.917,-0.075 -22.375,-0.007 -2.182,0.02 -2.624,1.462 -2.356,3.819 0.283,2.482 0.683,4.947 1.074,7.41 0.207,1.301 0.381,2.629 1.093,3.742 0.445,0.696 1.03,1.103 1.76,1.116 1.71,0.031 3.42,0.014 5.13,0.008 0.57,-0.002 0.752,-0.257 0.65,-0.887 -0.243,-1.507 -0.493,-3.014 -0.749,-4.581"
             style="fill:#1f1955;fill-opacity:1;fill-rule:nonzero;stroke:none"
             id="path64" /></g><g
           id="g66"
           transform="translate(136.0232,53.9581)"><path
             d="M 0,0 C 0.053,0.353 0.102,0.706 0.159,1.057 0.217,1.421 0.173,1.626 -0.225,1.623 -2.629,1.605 -5.032,1.612 -7.436,1.617 c -0.249,0 -0.402,-0.031 -0.451,-0.401 -0.222,-1.648 -0.479,-3.289 -0.724,-4.933 -0.384,-1.288 -0.459,-2.641 -0.626,-3.975 -0.032,-0.06 -0.085,-0.115 -0.094,-0.179 -0.374,-2.466 -0.75,-4.931 -1.11,-7.399 -0.183,-1.257 -0.336,-2.52 -0.503,-3.78 -0.042,-0.132 -0.103,-0.26 -0.123,-0.397 -0.461,-3.136 -0.908,-6.276 -1.389,-9.408 -0.062,-0.406 -0.062,-0.524 0.328,-0.521 2.469,0.018 4.939,0.014 7.408,0.003 0.297,-10e-4 0.415,0.084 0.461,0.462 0.123,1 0.305,1.99 0.464,2.984 0.105,0.724 0.207,1.449 0.316,2.173 0.348,2.336 0.7,4.67 1.048,7.006 0.396,2.662 0.79,5.325 1.184,7.988 0.234,1.587 0.516,3.166 0.657,4.77 0.267,0.278 0.156,0.684 0.194,1.01 C -0.278,-1.984 0.006,-1.017 0,0 m -8.409,-29.805 c -1.215,0 -2.43,0 -3.645,0 -0.91,0.001 -0.93,0.045 -0.768,1.108 0.339,2.234 0.659,4.471 0.996,6.705 0.488,3.234 0.994,6.464 1.474,9.7 0.39,2.631 0.669,5.289 1.153,7.895 0.36,1.94 0.611,3.898 0.948,5.84 0.082,0.473 0.295,0.663 0.669,0.663 2.511,0.005 5.023,0.005 7.535,0.002 0.485,-10e-4 0.69,-0.24 0.622,-0.853 -0.323,-2.936 -0.81,-5.838 -1.244,-8.751 -0.395,-2.654 -0.747,-5.317 -1.144,-7.971 -0.428,-2.862 -0.909,-5.714 -1.323,-8.578 -0.245,-1.702 -0.485,-3.403 -0.748,-5.101 -0.091,-0.59 -0.34,-0.669 -0.758,-0.664 -1.255,0.014 -2.511,0.005 -3.767,0.005"
             style="fill:#24225a;fill-opacity:1;fill-rule:nonzero;stroke:none"
             id="path68" /></g><g
           id="g70"
           transform="translate(106.5271,18.819)"><path
             d="M 0,0 C 0.039,-0.301 0.095,-0.601 0.114,-0.904 0.187,-2.113 0.373,-3.297 0.786,-4.41 1.112,-5.291 1.669,-5.885 2.551,-5.888 4.549,-5.896 6.547,-5.88 8.544,-5.901 8.93,-5.905 9.066,-5.762 9.019,-5.328 8.92,-4.437 8.852,-3.54 8.732,-2.653 8.538,-1.228 8.376,0.2 8.267,1.637 8.188,2.215 8.094,2.791 8.032,3.371 7.896,4.635 7.785,5.902 7.645,7.165 7.618,7.414 7.537,7.647 7.223,7.646 4.629,7.634 2.034,7.639 -0.56,7.639 -0.736,7.639 -0.917,7.633 -0.859,7.343 -0.706,6.58 -0.686,5.801 -0.606,5.029 -0.43,3.349 -0.205,1.676 0,0 M 3.336,8.072 C 4.634,8.072 5.932,8.05 7.229,8.083 7.734,8.096 7.963,7.806 8.018,7.306 8.24,5.287 8.427,3.262 8.652,1.243 8.879,-0.797 9.138,-2.832 9.375,-4.871 9.406,-5.131 9.381,-5.398 9.39,-5.661 9.404,-6.108 9.234,-6.326 8.841,-6.326 6.637,-6.321 4.432,-6.364 2.23,-6.304 1.353,-6.28 0.798,-5.55 0.444,-4.665 -0.001,-3.556 -0.145,-2.36 -0.26,-1.153 -0.375,0.069 -0.529,1.287 -0.668,2.507 -0.818,3.82 -0.97,5.133 -1.119,6.446 -1.127,6.516 -1.116,6.59 -1.121,6.661 -1.216,8.072 -1.216,8.072 0,8.072 c 1.112,0 2.224,0 3.336,0"
             style="fill:#1f1955;fill-opacity:1;fill-rule:nonzero;stroke:none"
             id="path72" /></g><g
           id="g74"
           transform="translate(222.9851,30.9157)"><path
             d="m 0,0 c 0.246,1.586 0.501,3.171 0.736,4.759 0.354,2.386 0.691,4.775 1.044,7.16 0.131,0.889 0.284,1.773 0.427,2.659 0.067,0.409 -0.077,0.55 -0.432,0.549 -3.025,-0.011 -6.051,0.003 -9.077,-0.019 -0.424,-0.003 -0.845,-0.18 -1.28,-0.134 -0.297,0.032 -0.312,-0.219 -0.349,-0.463 -0.236,-1.565 -0.477,-3.13 -0.716,-4.695 -0.168,-1.097 -0.335,-2.194 -0.502,-3.291 -2.732,-1.233 -5.447,-1.258 -8.142,0.158 0.094,1.327 0.341,2.625 0.533,3.934 0.392,2.665 0.779,5.332 1.193,7.993 0.257,1.652 0.356,3.353 1.14,4.848 0.482,0.919 1.201,1.286 2.06,1.297 1.975,0.027 3.95,0.002 5.925,-10e-4 0.03,-0.208 0.18,-0.315 0.289,-0.451 1.302,-1.616 2.093,-3.525 2.443,-5.695 0.048,-0.294 -0.017,-0.623 0.166,-0.884 0.211,0.054 0.305,0.254 0.427,0.408 1.611,2.035 3.598,3.201 5.955,3.555 1.35,0.203 2.659,-0.06 3.97,-0.367 0,0 0,-0.005 0,-0.005 C 5.88,21.279 5.95,21.244 6.019,21.208 6.14,21.152 6.261,21.096 6.382,21.04 7.445,20.514 8.448,19.868 9.293,18.941 9.797,18.389 10.261,17.787 10.742,17.208 10.705,15.825 10.379,14.493 10.195,13.136 9.834,10.468 9.42,7.809 9.018,5.148 8.832,3.915 8.625,2.686 8.428,1.456 6.848,0.394 5.168,-0.313 3.34,-0.497 2.211,-0.473 1.105,-0.239 0,0"
             style="fill:#204280;fill-opacity:1;fill-rule:nonzero;stroke:none"
             id="path76" /></g><g
           id="g78"
           transform="translate(222.9851,30.9157)"><path
             d="M 0,0 C 1.105,-0.239 2.211,-0.473 3.339,-0.497 4.09,-0.811 4.86,-1.074 5.656,-1.104 6.483,-1.135 7.273,-1.267 8.012,-1.715 7.771,-3.269 7.528,-4.822 7.291,-6.377 6.98,-8.421 6.683,-10.467 6.362,-12.509 c -0.186,-1.179 -0.283,-2.374 -0.663,-3.514 -0.403,-1.209 -1.177,-1.874 -2.201,-1.935 -1.71,-0.101 -3.429,-0.013 -5.143,-0.005 -1.176,1.362 -2.737,1.966 -4.152,2.857 -0.084,0.053 -0.204,0.089 -0.291,0.062 -0.693,-0.215 -1.458,-0.295 -2.056,-0.705 -1.214,-0.832 -2.459,-1.527 -3.818,-1.948 0.046,1.229 0.276,2.429 0.478,3.627 0.26,1.546 0.376,3.123 0.803,4.638 0.419,1.487 1.528,2.219 2.679,2.232 2.121,0.025 4.243,0.02 6.364,-0.003 0.424,-0.005 0.664,0.077 0.737,0.634 0.237,1.819 0.52,3.63 0.768,5.447 C -0.082,-0.751 0.062,-0.391 0,0"
             style="fill:#8c57a3;fill-opacity:1;fill-rule:nonzero;stroke:none"
             id="path80" /></g><g
           id="g82"
           transform="translate(212.3642,34.3741)"><path
             d="m 0,0 c -0.122,-1.699 -0.471,-3.354 -0.701,-5.033 -0.286,-2.096 -0.613,-4.185 -0.922,-6.277 -0.304,-2.07 -0.608,-4.139 -0.91,-6.209 -0.153,-1.047 -0.318,-2.091 -0.444,-3.142 -0.064,-0.542 -0.202,-0.811 -0.75,-0.802 -2.348,0.039 -4.697,0.02 -7.046,0.014 -0.398,-10e-4 -0.645,-0.083 -0.524,0.661 0.531,3.266 0.967,6.553 1.491,9.823 0.423,2.644 0.738,5.312 1.153,7.958 0.13,0.827 0.12,1.698 0.456,2.477 1.024,0.511 2.022,1.099 3.14,1.31 0.299,0.057 0.599,0.147 0.851,0.369 C -3.663,1.03 -3.123,0.837 -2.577,0.809 -1.657,0.761 -0.801,0.521 0,0"
             style="fill:#8c57a3;fill-opacity:1;fill-rule:nonzero;stroke:none"
             id="path84" /></g><g
           id="g86"
           transform="translate(228.7946,52.2357)"><path
             d="m 0,0 c -1.311,0.307 -2.619,0.57 -3.97,0.367 -2.356,-0.354 -4.343,-1.52 -5.955,-3.555 -0.122,-0.154 -0.216,-0.354 -0.426,-0.408 -0.183,0.261 -0.119,0.59 -0.166,0.884 -0.35,2.17 -1.141,4.079 -2.443,5.695 -0.11,0.136 -0.26,0.243 -0.289,0.451 0.859,-0.004 1.718,-0.007 2.577,-0.01 C -9.769,3.068 -8.94,2.465 -7.938,2.448 -6.713,2.427 -5.553,2.034 -4.452,1.42 -4.004,1.17 -3.557,0.995 -3.051,0.953 -1.986,0.865 -0.966,0.538 0,0"
             style="fill:#33ae67;fill-opacity:1;fill-rule:nonzero;stroke:none"
             id="path88" /></g><g
           id="g90"
           transform="translate(227.1863,55.6574)"><path
             d="M 0,0 C 1.902,-0.016 3.812,0.195 5.705,-0.113 6.801,-0.292 7.157,-0.863 7.202,-2.145 7.234,-3.058 7.079,-3.944 6.912,-4.828 5.936,-4.451 4.998,-3.922 3.959,-3.787 3.79,-3.467 3.524,-3.255 3.25,-3.117 1.907,-2.438 1.071,-1.055 0,0"
             style="fill:#13b0ca;fill-opacity:1;fill-rule:nonzero;stroke:none"
             id="path92" /></g><g
           id="g94"
           transform="translate(227.1863,55.6574)"><path
             d="m 0,0 c 1.071,-1.055 1.907,-2.438 3.25,-3.117 0.274,-0.138 0.54,-0.35 0.709,-0.67 -0.593,0.028 -1.185,0.057 -1.778,0.085 -0.121,0.056 -0.242,0.112 -0.363,0.168 -0.069,0.036 -0.139,0.072 -0.209,0.107 0,0 -10e-4,0.005 -10e-4,0.005 -0.966,0.538 -1.986,0.865 -3.051,0.953 -0.506,0.042 -0.953,0.218 -1.401,0.468 -1.101,0.614 -2.26,1.007 -3.486,1.027 -1.001,0.017 -1.831,0.621 -2.733,0.976 C -6.042,0.001 -3.021,0.001 0,0"
             style="fill:#8b58a3;fill-opacity:1;fill-rule:nonzero;stroke:none"
             id="path96" /></g><g
           id="g98"
           transform="translate(211.0228,13.219)"><path
             d="M 0,0 C 1.359,0.421 2.604,1.116 3.819,1.948 4.416,2.357 5.182,2.438 5.874,2.653 5.961,2.68 6.082,2.643 6.165,2.591 7.58,1.7 9.142,1.096 10.317,-0.267 c -3.334,0 -6.667,0 -10.001,0.002 C 0.163,-0.265 -0.039,-0.322 0,0"
             style="fill:#1baec8;fill-opacity:1;fill-rule:nonzero;stroke:none"
             id="path100" /></g><g
           id="g102"
           transform="translate(212.3642,34.3741)"><path
             d="m 0,0 c -0.801,0.521 -1.657,0.761 -2.577,0.809 -0.546,0.028 -1.086,0.221 -1.629,0.34 -1.166,0.506 -2.322,1.058 -3.603,1.007 0.043,0.357 -0.12,0.75 0.139,1.069 C -4.976,1.809 -2.26,1.834 0.472,3.066 0.372,2.032 0.224,1.008 0,0"
             style="fill:#33ae67;fill-opacity:1;fill-rule:nonzero;stroke:none"
             id="path104" /></g><g
           id="g106"
           transform="translate(230.9969,29.2007)"><path
             d="m 0,0 c -0.739,0.448 -1.528,0.58 -2.356,0.611 -0.795,0.03 -1.566,0.293 -2.316,0.607 1.828,0.184 3.508,0.891 5.088,1.953 C 0.277,2.114 0.139,1.057 0,0"
             style="fill:#33ae67;fill-opacity:1;fill-rule:nonzero;stroke:none"
             id="path108" /></g><g
           id="g110"
           transform="translate(229.3675,51.9554)"><path
             d="M 0,0 C 0.592,-0.028 1.185,-0.057 1.777,-0.085 2.817,-0.22 3.755,-0.749 4.731,-1.126 4.735,-2.052 4.583,-2.949 4.36,-3.832 3.878,-3.252 3.414,-2.651 2.91,-2.098 2.065,-1.172 1.063,-0.526 0,0"
             style="fill:#33ae67;fill-opacity:1;fill-rule:nonzero;stroke:none"
             id="path112" /></g><g
           id="g114"
           transform="translate(204.5552,36.5299)"><path
             d="M 0,0 C 1.281,0.051 2.437,-0.501 3.603,-1.006 3.351,-1.229 3.051,-1.319 2.752,-1.375 1.634,-1.587 0.636,-2.175 -0.388,-2.686 -0.258,-1.791 -0.129,-0.895 0,0"
             style="fill:#1baec8;fill-opacity:1;fill-rule:nonzero;stroke:none"
             id="path116" /></g><g
           id="g118"
           transform="translate(99.1905,41.4275)"><path
             d="m 0,0 c -0.024,-1.065 -0.258,-2.095 -0.397,-3.14 -0.249,-1.888 -0.534,-3.769 -0.806,-5.652 -0.303,-2.093 -0.607,-4.186 -0.91,-6.278 -0.274,-1.883 -0.547,-3.766 -0.821,-5.649 -0.318,-2.185 -0.617,-4.374 -0.964,-6.552 -0.197,-1.235 -0.233,-1.227 -1.313,-1.227 -2.203,0 -4.406,0.003 -6.609,-0.003 -0.354,-10e-4 -0.514,-0.031 -0.42,0.572 0.511,3.272 0.927,6.563 1.405,9.842 0.428,2.927 0.907,5.845 1.34,8.771 0.352,2.371 0.655,4.751 1.012,7.121 0.097,0.642 0.108,1.312 0.353,1.919 1.175,-0.064 2.334,-0.471 3.525,-0.185 0.849,0.204 1.72,0.293 2.57,0.135 C -1.305,-0.462 -0.658,-0.277 0,0"
             style="fill:#8c57a3;fill-opacity:1;fill-rule:nonzero;stroke:none"
             id="path120" /></g><g
           id="g122"
           transform="translate(118.7598,29.7231)"><path
             d="m 0,0 c -0.473,-1.007 -1.261,-1.513 -2.189,-1.518 -5.621,-0.032 -11.242,-0.011 -16.863,-0.007 -0.147,1.319 -0.068,2.625 0.202,3.913 0.621,2.957 2.107,5.192 4.259,6.863 2.802,0.003 5.604,0.014 8.406,-0.003 0.37,-0.002 0.58,0.112 0.631,0.545 C -3.486,8.695 -1.998,6.92 -0.983,4.565 -0.362,3.123 -0.163,1.57 0,0"
             style="fill:#ea1f4a;fill-opacity:1;fill-rule:nonzero;stroke:none"
             id="path124" /></g><g
           id="g126"
           transform="translate(100.5588,46.8675)"><path
             d="m 0,0 c -0.181,0 -0.362,-0.001 -0.543,-0.001 -3.042,0.15 -5.499,1.623 -7.374,4.415 -0.278,0.914 0.142,1.756 0.207,2.635 0.032,0.442 0.177,0.877 0.182,1.317 0.005,0.421 0.164,0.452 0.45,0.451 C -1.827,8.811 3.424,8.813 8.674,8.81 8.811,8.81 8.968,8.863 9.065,8.683 9.055,8.593 9.045,8.503 9.035,8.412 8.947,8.331 8.937,8.221 8.954,8.103 8.943,8.048 8.932,7.994 8.921,7.94 8.812,7.829 8.801,7.683 8.81,7.529 L 8.801,7.496 C 8.722,7.434 8.695,7.348 8.712,7.241 8.699,7.188 8.686,7.135 8.672,7.083 8.582,7.019 8.561,6.922 8.572,6.809 L 8.546,6.79 8.557,6.756 C 8.482,6.702 8.444,6.627 8.462,6.521 8.365,6.285 8.267,6.049 8.169,5.813 8.141,5.762 8.113,5.71 8.086,5.659 L 8.055,5.64 8.062,5.601 C 7.976,5.556 7.941,5.477 7.948,5.371 L 7.93,5.337 C 7.908,5.302 7.886,5.267 7.863,5.232 7.842,5.182 7.821,5.132 7.8,5.082 7.772,5.035 7.744,4.987 7.716,4.939 L 7.685,4.924 7.689,4.885 C 7.6,4.841 7.563,4.759 7.563,4.65 7.563,4.65 7.559,4.642 7.559,4.642 7.528,4.598 7.498,4.554 7.467,4.51 L 7.434,4.498 7.433,4.457 C 7.409,4.427 7.386,4.397 7.363,4.367 7.326,4.362 7.311,4.338 7.319,4.296 7.233,4.257 7.188,4.184 7.187,4.075 V 4.074 C 7.15,4.026 7.114,3.978 7.077,3.93 L 7.064,3.911 C 7.032,3.87 7,3.83 6.968,3.789 L 6.939,3.755 C 6.91,3.719 6.881,3.682 6.852,3.645 L 6.818,3.636 6.815,3.595 C 6.789,3.564 6.764,3.533 6.739,3.503 6.702,3.503 6.686,3.482 6.69,3.44 L 6.637,3.424 6.626,3.362 C 6.586,3.36 6.566,3.336 6.564,3.29 L 6.513,3.278 6.503,3.217 C 6.462,3.213 6.441,3.188 6.44,3.14 L 6.391,3.13 6.382,3.074 C 6.343,3.076 6.321,3.054 6.317,3.009 6.292,2.981 6.267,2.954 6.243,2.926 L 6.204,2.915 6.195,2.871 C 6.167,2.842 6.14,2.812 6.112,2.783 H 6.079 L 6.072,2.745 C 6.039,2.709 6.006,2.672 5.973,2.635 L 5.95,2.609 C 5.912,2.57 5.874,2.531 5.836,2.491 L 5.828,2.484 C 5.782,2.442 5.736,2.4 5.69,2.359 5.651,2.329 5.611,2.298 5.572,2.268 L 5.521,2.264 5.508,2.206 C 5.472,2.211 5.453,2.193 5.452,2.15 5.423,2.121 5.393,2.091 5.363,2.062 L 5.334,2.037 C 5.182,2.012 5.071,1.917 4.991,1.768 L 4.96,1.748 C 4.87,1.761 4.809,1.716 4.776,1.619 4.74,1.635 4.718,1.621 4.709,1.577 4.673,1.546 4.637,1.515 4.6,1.484 L 4.591,1.477 C 4.49,1.488 4.413,1.448 4.368,1.337 L 4.342,1.321 C 4.25,1.331 4.182,1.291 4.143,1.191 L 4.108,1.2 4.091,1.162 C 4.001,1.178 3.929,1.154 3.89,1.048 L 3.858,1.058 3.845,1.023 C 3.752,1.037 3.675,1.012 3.631,0.905 L 3.6,0.888 C 3.5,0.902 3.414,0.878 3.358,0.771 3.315,0.753 3.273,0.736 3.231,0.719 3.139,0.745 3.072,0.704 3.023,0.615 L 2.982,0.601 C 2.724,0.576 2.479,0.505 2.262,0.329 L 2.241,0.322 C 1.493,0.226 0.76,-0.018 0,0"
             style="fill:#ea1f4a;fill-opacity:1;fill-rule:nonzero;stroke:none"
             id="path128" /></g><g
           id="g130"
           transform="translate(103.7894,47.5863)"><path
             d="m 0,0 c 0.042,0.017 0.085,0.035 0.127,0.052 0.1,-0.017 0.19,-0.003 0.242,0.117 0,0 0.031,0.017 0.031,0.017 0.09,-0.007 0.171,0.009 0.214,0.118 l 0.014,0.035 c 0,0 0.031,-0.01 0.031,-0.01 0.086,-0.008 0.163,0.007 0.202,0.114 l 0.016,0.038 c 0,0 0.036,-0.009 0.035,-0.009 0.09,-0.005 0.164,0.024 0.2,0.13 0,0 0.026,0.016 0.025,0.016 0.1,-0.007 0.183,0.021 0.224,0.141 0,0 0.009,0.006 0.009,0.006 0.036,0.031 0.072,0.062 0.108,0.094 0.009,0.043 0.031,0.057 0.067,0.041 0.084,-0.002 0.154,0.025 0.184,0.129 0,0 0.031,0.02 0.031,0.02 0.174,-0.013 0.34,-0.014 0.343,0.269 0,0 0.029,0.025 0.029,0.025 0.03,0.029 0.06,0.059 0.09,0.088 10e-4,0.043 0.019,0.062 0.055,0.055 0.032,0.007 0.053,0.028 0.064,0.063 0.04,0.031 0.079,0.061 0.118,0.091 0.046,0.041 0.092,0.083 0.138,0.125 0,0 0.008,0.008 0.008,0.008 0.038,0.039 0.077,0.078 0.115,0.118 0,0 0.022,0.026 0.022,0.025 0.033,0.037 0.067,0.074 0.1,0.11 l 0.006,0.038 c 0,0 0.034,0 0.034,-10e-4 0.042,0.011 0.07,0.04 0.082,0.089 l 0.01,0.045 c 0,0 0.038,0.01 0.038,0.01 0.039,0.01 0.064,0.038 0.074,0.083 0.004,0.046 0.026,0.067 0.065,0.065 0.031,0.008 0.05,0.03 0.058,0.066 10e-4,0.048 0.022,0.074 0.063,0.077 0.033,0.01 0.054,0.034 0.062,0.073 10e-4,0.046 0.021,0.07 0.061,0.072 C 3.43,2.654 3.451,2.68 3.46,2.721 3.456,2.763 3.472,2.784 3.508,2.784 3.549,2.797 3.574,2.828 3.584,2.876 l 0.003,0.041 c 0,0 0.034,0.009 0.034,0.009 0.029,0.037 0.058,0.074 0.087,0.11 0,0 0.029,0.034 0.029,0.034 0.032,0.041 0.065,0.081 0.097,0.122 0,0 0.013,0.019 0.013,0.019 0.036,0.048 0.073,0.096 0.109,0.144 0,0 0,0.002 0,0.002 0.096,0.031 0.13,0.113 0.132,0.22 -0.007,0.043 0.007,0.066 0.044,0.071 0.038,0.014 0.062,0.044 0.07,0.091 l 0.001,0.04 c 0,0 0.034,0.012 0.034,0.012 0.03,0.044 0.061,0.088 0.091,0.132 0,0 0.005,0.008 0.005,0.008 0.096,0.039 0.126,0.126 0.126,0.235 L 4.454,4.205 c 0,0 0.031,0.016 0.031,0.015 0.028,0.048 0.056,0.096 0.084,0.143 0.021,0.05 0.043,0.1 0.064,0.15 0.038,0.021 0.061,0.056 0.066,0.105 0,0 0.019,0.034 0.019,0.034 0.092,0.04 0.114,0.128 0.113,0.23 L 4.825,4.921 c 0,0 0.03,0.019 0.03,0.019 C 4.883,4.991 4.911,5.043 4.939,5.094 5.036,5.33 5.134,5.566 5.231,5.802 5.263,5.88 5.295,5.959 5.327,6.038 L 5.315,6.071 c 0,0 0.027,0.019 0.027,0.019 0.094,0.061 0.108,0.162 0.1,0.274 0.013,0.053 0.026,0.105 0.04,0.158 0.029,0.085 0.059,0.17 0.088,0.255 0,0 0.01,0.033 0.01,0.033 0.143,0.098 0.116,0.258 0.11,0.411 0.011,0.054 0.022,0.109 0.033,0.163 0.091,0.08 0.097,0.191 0.081,0.309 0.01,0.091 0.021,0.181 0.031,0.272 1.092,0.007 2.184,0.014 3.277,0.021 0.657,-0.79 1.322,-1.568 2.123,-2.17 C 13.447,4.155 15.858,3.687 18.43,4.178 18.367,2.835 18.076,1.532 17.913,0.206 17.246,0.029 16.621,-0.292 16.047,-0.705 15.404,-1.167 14.718,-1.405 13.985,-1.567 13.116,-1.759 12.28,-2.111 11.521,-2.65 11.12,-2.934 10.704,-3.073 10.244,-3.082 c 0.062,0.496 0.067,1.014 0.199,1.484 0.195,0.693 -0.069,0.74 -0.554,0.739 -3.499,-0.007 -6.999,0.011 -10.498,0.022 -0.206,0.001 -0.411,0.017 -0.616,0.025 -0.019,0.214 0.179,0.26 0.236,0.416 0,0 0.021,0.007 0.02,0.007 0.262,0.013 0.566,-0.126 0.721,0.271 0,0 0.04,0.014 0.04,0.014 C -0.123,-0.113 -0.047,-0.096 0,0"
             style="fill:#13b0ca;fill-opacity:1;fill-rule:nonzero;stroke:none"
             id="path132" /></g><g
           id="g134"
           transform="translate(114.0336,44.504)"><path
             d="M 0,0 C 0.459,0.009 0.876,0.148 1.277,0.433 2.036,0.972 2.872,1.323 3.74,1.515 4.474,1.678 5.16,1.915 5.803,2.377 6.377,2.79 7.001,3.111 7.669,3.288 7.581,1.971 7.332,0.684 7.139,-0.614 6.87,-2.425 6.604,-4.236 6.33,-6.045 6.022,-8.086 5.697,-10.123 5.398,-12.165 5.265,-13.072 5.15,-13.978 4.726,-14.781 c -0.163,1.57 -0.362,3.123 -0.983,4.565 -1.014,2.355 -2.503,4.13 -4.571,5.228 0.184,1.263 0.354,2.529 0.558,3.787 C -0.205,-0.797 -0.281,-0.341 0,0"
             style="fill:#8c57a3;fill-opacity:1;fill-rule:nonzero;stroke:none"
             id="path136" /></g><g
           id="g138"
           transform="translate(92.6421,51.2819)"><path
             d="M 0,0 C 1.875,-2.792 4.332,-4.266 7.374,-4.415 7.007,-6.209 6.823,-8.041 6.548,-9.854 5.89,-10.132 5.243,-10.317 4.513,-10.181 c -0.849,0.159 -1.721,0.069 -2.569,-0.134 -1.191,-0.286 -2.351,0.121 -3.525,0.184 0.432,2.997 0.858,5.996 1.306,8.989 C -0.218,-0.758 -0.293,-0.313 0,0"
             style="fill:#1baec8;fill-opacity:1;fill-rule:nonzero;stroke:none"
             id="path140" /></g><g
           id="g142"
           transform="translate(122.2196,51.7643)"><path
             d="m 0,0 c -2.572,-0.491 -4.983,-0.023 -7.195,1.638 -0.802,0.602 -1.466,1.38 -2.123,2.17 0.156,0.172 0.35,0.105 0.529,0.105 1.809,0.005 3.619,0.028 5.428,-0.01 C -2.702,3.889 -2.036,3.772 -1.39,3.613 -0.513,3.398 0.086,2.501 0.113,1.389 0.124,0.93 0.251,0.438 0,0"
             style="fill:#fdd703;fill-opacity:1;fill-rule:nonzero;stroke:none"
             id="path144" /></g><g
           id="g146"
           transform="translate(104.1686,38.9743)"><path
             d="m 0,0 c -2.152,-1.671 -3.638,-3.906 -4.259,-6.863 -0.27,-1.289 -0.349,-2.594 -0.202,-3.913 -0.546,-0.09 -0.783,-0.04 -0.635,0.803 0.411,2.328 0.612,4.708 1.052,7.027 0.321,1.694 1.009,2.987 3.058,2.953 C -0.658,0.001 -0.329,0.002 0,0"
             style="fill:#8c57a3;fill-opacity:1;fill-rule:nonzero;stroke:none"
             id="path148" /></g><g
           id="g150"
           transform="translate(102.8003,47.1899)"><path
             d="m 0,0 c -0.057,-0.155 -0.255,-0.202 -0.236,-0.415 -0.671,-0.043 -1.34,-0.04 -2.005,0.093 C -1.481,-0.34 -0.748,-0.097 0,0"
             style="fill:#1baec8;fill-opacity:1;fill-rule:nonzero;stroke:none"
             id="path152" /></g><g
           id="g154"
           transform="translate(177.7313,31.4286)"><path
             d="m 0,0 c 0.413,-1.264 0.449,-2.626 0.747,-3.919 0.087,-0.377 0,-1.025 0.278,-1.072 0.317,-0.053 0.356,0.594 0.538,0.919 0.773,1.387 1.31,2.937 2.155,4.275 0.813,-0.212 1.612,-0.44 2.469,-0.224 0.677,0.17 1.382,0.251 2.081,0.131 1.284,-0.219 2.566,-0.249 3.849,0.002 0.327,0.064 0.655,0.004 0.979,0.014 0.745,0.023 1.46,-0.376 2.197,-0.229 1.121,0.225 2.24,0.308 3.372,0.17 0.413,-0.05 0.821,-0.028 1.214,0.153 -0.039,-1.352 -0.334,-2.658 -0.515,-3.985 -0.257,-1.886 -0.546,-3.767 -0.82,-5.651 -0.319,-2.185 -0.638,-4.371 -0.953,-6.558 -0.101,-0.698 -0.219,-1.396 -0.272,-2.1 -0.028,-0.361 -0.144,-0.43 -0.416,-0.429 -2.492,0.007 -4.984,0.014 -7.476,-0.005 -0.412,-0.003 -0.442,0.25 -0.394,0.584 0.257,1.767 0.524,3.533 0.788,5.299 0.312,2.091 0.623,4.183 0.937,6.273 0.244,1.625 0.491,3.25 0.735,4.875 0.013,0.092 10e-4,0.189 10e-4,0.445 -2.14,-4.476 -4.218,-8.82 -6.295,-13.164 -0.094,0.157 -0.187,0.314 -0.281,0.472 -2.368,3.99 -6.881,5.782 -10.727,4.261 -0.246,1.346 -0.499,2.69 -0.737,4.038 -0.284,1.609 -0.559,3.221 -0.827,4.835 -0.038,0.229 -0.016,0.472 -0.022,0.708 0.761,0.096 1.516,0.002 2.269,-0.105 0.344,-0.048 0.683,-0.235 1.031,-0.147 C -2.736,0.213 -1.371,0.188 0,0"
             style="fill:#8c57a3;fill-opacity:1;fill-rule:nonzero;stroke:none"
             id="path156" /></g><g
           id="g158"
           transform="translate(186.5339,42.162)"><path
             d="m 0,0 c 0.306,1.141 0.934,2.088 1.4,3.133 0.681,1.525 1.437,3.004 2.164,4.501 0.895,1.841 1.807,3.672 2.681,5.526 0.151,0.321 0.322,0.362 0.581,0.361 2.428,-0.005 4.856,-0.019 7.283,0.011 0.471,0.006 0.503,-0.22 0.441,-0.635 C 14.223,10.714 13.902,8.529 13.574,6.346 13.249,4.186 12.91,2.029 12.596,-0.133 12.408,-1.423 12.252,-2.72 12.098,-4.017 12.077,-4.196 12.018,-4.327 11.935,-4.46 11.774,-4.497 11.614,-4.533 11.453,-4.57 8.651,-5.225 6.007,-4.719 3.753,-2.668 2.572,-1.594 1.288,-0.817 0,0"
             style="fill:#fdd703;fill-opacity:1;fill-rule:nonzero;stroke:none"
             id="path160" /></g><g
           id="g162"
           transform="translate(186.5339,42.162)"><path
             d="m 0,0 c 1.288,-0.817 2.572,-1.594 3.753,-2.668 2.254,-2.051 4.898,-2.557 7.7,-1.902 0.161,0.037 0.321,0.073 0.482,0.11 -0.286,-2.018 -0.572,-4.036 -0.859,-6.054 -0.393,-0.18 -0.8,-0.203 -1.214,-0.152 -1.131,0.137 -2.251,0.055 -3.372,-0.17 -0.737,-0.148 -1.452,0.252 -2.196,0.229 -0.325,-0.01 -0.652,0.05 -0.98,-0.015 -1.282,-0.251 -2.565,-0.221 -3.848,-10e-4 -0.7,0.119 -1.404,0.039 -2.081,-0.132 -0.857,-0.216 -1.656,0.012 -2.469,0.225 C -3.389,-7.02 -1.695,-3.51 0,0"
             style="fill:#13b0ca;fill-opacity:1;fill-rule:nonzero;stroke:none"
             id="path164" /></g><g
           id="g166"
           transform="translate(177.7313,31.4286)"><path
             d="m 0,0 c -1.371,0.188 -2.736,0.213 -4.095,-0.134 -0.348,-0.088 -0.687,0.099 -1.031,0.147 -0.753,0.107 -1.508,0.201 -2.269,0.105 -0.371,2.146 -0.753,4.289 -1.109,6.438 -0.156,0.938 0.148,1.841 0.244,2.758 0.099,0.944 0.268,1.877 0.407,2.815 0.224,0.135 0.465,0.163 0.715,0.175 1.012,0.05 2.001,0.269 2.932,0.73 0.636,0.315 1.274,0.509 1.963,0.462 C -1.495,8.997 -0.748,4.499 0,0"
             style="fill:#13b0ca;fill-opacity:1;fill-rule:nonzero;stroke:none"
             id="path168" /></g><g
           id="g170"
           transform="translate(171.9221,21.9654)"><path
             d="m 0,0 c 3.846,1.522 8.359,-0.271 10.728,-4.261 0.093,-0.157 0.186,-0.314 0.28,-0.472 C 10.467,-6.156 9.748,-7.469 9.124,-8.841 9.024,-9.063 8.821,-9.04 8.634,-9.039 6.887,-9.036 5.141,-9.046 3.394,-9.034 2.439,-9.028 1.598,-8.196 1.236,-6.955 0.811,-5.497 0.644,-3.972 0.376,-2.473 0.23,-1.654 0.015,-0.847 0,0"
             style="fill:#fdd703;fill-opacity:1;fill-rule:nonzero;stroke:none"
             id="path172" /></g><g
           id="g174"
           transform="translate(175.4887,44.9248)"><path
             d="m 0,0 c -0.69,0.047 -1.327,-0.147 -1.964,-0.462 -0.93,-0.461 -1.92,-0.68 -2.932,-0.73 -0.249,-0.012 -0.49,-0.04 -0.715,-0.175 0.002,1.085 0.237,2.134 0.381,3.196 0.251,1.861 0.536,3.717 0.796,5.577 0.137,0.977 0.25,1.958 0.376,2.937 0.072,0.55 0.412,0.454 0.705,0.354 0.993,-0.338 1.505,-1.27 1.866,-2.279 C -0.907,6.8 -0.802,5.036 -0.486,3.337 -0.282,2.235 -0.051,1.134 0,0"
             style="fill:#8c57a3;fill-opacity:1;fill-rule:nonzero;stroke:none"
             id="path176" /></g><g
           id="g178"
           transform="translate(73.9801,45.1575)"><path
             d="m 0,0 c -0.054,-1.445 -0.337,-2.829 -1.145,-3.945 -0.441,-0.61 -1.16,-0.768 -1.841,-0.78 -1.442,-0.026 -2.884,0.01 -4.326,-0.019 -0.419,-0.009 -0.506,0.201 -0.446,0.598 0.223,1.487 0.43,2.978 0.692,4.456 0.088,0.495 -0.037,0.577 -0.41,0.576 -3.337,-0.009 -6.674,0.003 -10.011,-0.015 -0.466,-0.002 -0.925,-0.184 -1.4,-0.141 -0.253,0.023 -0.339,-0.16 -0.381,-0.442 -0.312,-2.139 -0.635,-4.276 -0.964,-6.411 -0.069,-0.449 0.008,-0.641 0.453,-0.64 5.026,0.016 10.052,-0.025 15.078,0.046 0.816,0.012 1.618,0.062 2.399,-0.187 0.875,-0.279 1.187,-0.878 1.217,-1.931 0.054,-1.874 -0.474,-3.639 -0.702,-5.46 -0.052,-0.415 -0.191,-0.588 -0.548,-0.518 -0.1,0.02 -0.205,0.003 -0.308,0.003 -6.159,0 -12.319,0 -18.478,0.001 -0.288,0 -0.576,0.014 -0.864,0.021 0.536,0.395 1.148,0.598 1.814,0.918 -2.044,0.286 -3.778,1.474 -5.76,1.629 -1.104,0.087 -2.161,0.769 -3.322,0.534 0.015,1.333 0.342,2.609 0.526,3.911 0.334,2.349 0.701,4.692 1.062,7.036 0.307,1.996 0.643,3.986 0.929,5.986 0.157,1.098 0.341,2.183 0.682,3.223 0.185,0.564 0.389,1.131 0.926,1.384 0.122,-0.016 0.245,-0.052 0.367,-0.045 1.781,0.107 3.476,-0.276 5.088,-1.17 0.144,-0.08 0.314,-0.12 0.474,-0.132 1.599,-0.117 3.13,-0.517 4.549,-1.422 0.154,-0.099 0.352,-0.128 0.532,-0.144 1.78,-0.166 3.416,-0.809 4.896,-1.979 C -8.965,4.738 -8.703,4.56 -8.391,4.49 -6.931,4.164 -5.62,3.452 -4.432,2.417 -4.27,2.275 -4.09,2.119 -3.899,2.072 -2.465,1.72 -1.201,0.943 0,0"
             style="fill:#8c57a3;fill-opacity:1;fill-rule:nonzero;stroke:none"
             id="path180" /></g><g
           id="g182"
           transform="translate(73.9801,45.1575)"><path
             d="M 0,0 C -1.201,0.943 -2.465,1.72 -3.899,2.072 -4.09,2.119 -4.27,2.275 -4.432,2.417 -5.62,3.452 -6.931,4.164 -8.391,4.49 c -0.312,0.07 -0.574,0.248 -0.831,0.451 -1.48,1.17 -3.116,1.813 -4.896,1.979 -0.18,0.016 -0.378,0.045 -0.532,0.144 -1.419,0.905 -2.95,1.305 -4.549,1.422 -0.16,0.012 -0.33,0.052 -0.474,0.132 -1.612,0.894 -3.307,1.277 -5.088,1.17 -0.122,-0.007 -0.245,0.029 -0.367,0.045 0.449,0.508 1.015,0.58 1.6,0.584 3.229,0.026 6.459,0.061 9.688,0.076 4.055,0.018 8.109,0.02 12.164,0.029 0.123,0 0.247,10e-4 0.37,0 C 0.688,10.51 1.399,9.502 1.056,7.203 0.698,4.803 0.352,2.401 0,0"
             style="fill:#13b0ca;fill-opacity:1;fill-rule:nonzero;stroke:none"
             id="path184" /></g><g
           id="g186"
           transform="translate(44.7276,33.4508)"><path
             d="M 0,0 C 1.161,0.234 2.217,-0.447 3.322,-0.534 5.304,-0.69 7.038,-1.878 9.081,-2.163 8.416,-2.483 7.803,-2.687 7.268,-3.081 5.581,-3.088 3.893,-3.137 2.207,-3.092 0.473,-3.046 -0.148,-2.132 0,0"
             style="fill:#1baec8;fill-opacity:1;fill-rule:nonzero;stroke:none"
             id="path188" /></g><g
           id="g190"
           transform="translate(256.2926,34.4304)"><path
             d="M 0,0 C 0.079,0.015 0.159,0.03 0.239,0.045 3.091,0.424 5.622,-0.441 7.815,-2.608 7.54,-4.53 7.274,-6.454 6.988,-8.373 c -0.312,-2.105 -0.65,-4.205 -0.962,-6.31 -0.306,-2.061 -0.604,-4.123 -0.881,-6.188 -0.059,-0.438 -0.213,-0.63 -0.59,-0.628 -1.73,0.005 -3.465,-0.097 -5.188,0.029 -1.346,0.098 -2.024,1.309 -2.378,2.676 -0.742,2.868 -1.416,5.761 -2.109,8.646 -0.385,1.601 -0.739,3.212 -1.139,4.807 -0.059,0.235 -0.087,0.458 -0.104,0.692 C -4.785,-2.091 -2.673,-0.525 0,0"
             style="fill:#ea1f4a;fill-opacity:1;fill-rule:nonzero;stroke:none"
             id="path192" /></g><g
           id="g194"
           transform="translate(256.2926,34.4304)"><path
             d="m 0,0 c -2.673,-0.525 -4.785,-2.091 -6.363,-4.649 -0.418,1.107 -0.578,2.303 -0.866,3.454 -0.375,1.498 -0.708,3.012 -1.113,4.498 -0.29,1.063 0.068,2.048 0.178,3.055 0.179,1.646 0.457,3.277 0.693,4.915 0.05,0.347 0.097,0.693 0.145,1.04 1.078,-0.083 2.121,-0.347 3.108,-0.858 0.537,-0.279 1.082,-0.451 1.67,-0.427 C -2.001,8.66 -1.466,6.287 -0.902,3.924 -0.591,2.619 -0.239,1.327 0,0"
             style="fill:#37b563;fill-opacity:1;fill-rule:nonzero;stroke:none"
             id="path196" /></g><g
           id="g198"
           transform="translate(258.3354,48.1982)"><path
             d="M 0,0 C 0.329,2.239 0.679,4.473 0.971,6.718 1.04,7.248 1.192,7.388 1.627,7.384 3.954,7.363 6.281,7.354 8.608,7.389 9.159,7.397 9.2,7.169 9.119,6.633 8.609,3.269 8.12,-0.099 7.625,-3.466 6.702,-3.2 5.752,-3.085 4.926,-2.417 4.048,-1.707 3.05,-1.237 1.992,-1.026 1.241,-0.876 0.603,-0.501 0,0"
             style="fill:#13b0ca;fill-opacity:1;fill-rule:nonzero;stroke:none"
             id="path200" /></g><g
           id="g202"
           transform="translate(264.1075,31.822)"><path
             d="m 0,0 c -2.193,2.168 -4.723,3.032 -7.576,2.654 -0.451,0.567 -0.048,1.163 0.014,1.708 0.214,1.873 0.511,3.733 0.816,5.589 0.123,0.751 0.115,1.535 0.381,2.253 0.275,-0.092 0.546,-0.24 0.826,-0.268 1.395,-0.139 2.683,-0.645 3.892,-1.451 0.232,-0.155 0.478,-0.281 0.75,-0.303 C -0.113,10.117 0.635,9.864 1.38,9.598 1.25,8.608 1.13,7.616 0.986,6.628 0.72,4.81 0.439,2.995 0.166,1.179 0.107,0.787 0.055,0.393 0,0"
             style="fill:#37b563;fill-opacity:1;fill-rule:nonzero;stroke:none"
             id="path204" /></g><g
           id="g206"
           transform="translate(265.4879,41.4202)"><path
             d="m 0,0 c -0.746,0.266 -1.494,0.519 -2.278,0.584 -0.272,0.022 -0.517,0.148 -0.75,0.303 -1.209,0.806 -2.497,1.312 -3.892,1.451 -0.279,0.028 -0.55,0.176 -0.825,0.268 0.098,1.41 0.309,2.798 0.593,4.172 C -6.549,6.277 -5.911,5.902 -5.16,5.752 -4.103,5.541 -3.104,5.071 -2.226,4.361 -1.4,3.693 -0.45,3.578 0.472,3.312 0.42,2.187 0.191,1.097 0,0"
             style="fill:#8b58a3;fill-opacity:1;fill-rule:nonzero;stroke:none"
             id="path208" /></g><g
           id="g210"
           transform="translate(253.7447,45.4586)"><path
             d="m 0,0 c -0.588,-0.024 -1.133,0.148 -1.67,0.426 -0.987,0.512 -2.03,0.776 -3.108,0.859 0.225,1.15 0.204,2.352 0.55,3.476 C -3.534,4.586 -2.841,4.407 -2.147,4.237 -1.792,4.151 -1.455,3.91 -1.072,4.059 -0.567,2.905 -0.47,1.605 -0.11,0.399 -0.071,0.267 -0.037,0.133 0,0"
             style="fill:#8b58a3;fill-opacity:1;fill-rule:nonzero;stroke:none"
             id="path212" /></g><g
           id="g214"
           transform="translate(252.6728,49.518)"><path
             d="M 0,0 C -0.384,-0.15 -0.72,0.091 -1.075,0.178 -1.769,0.347 -2.462,0.527 -3.156,0.702 -2.93,2.345 -2.703,3.989 -2.471,5.675 -1.799,5.438 -1.422,4.87 -1.133,4.208 -0.553,2.881 -0.319,1.424 0,0"
             style="fill:#1baec8;fill-opacity:1;fill-rule:nonzero;stroke:none"
             id="path216" /></g><g
           id="g218"
           transform="translate(144.3593,33.904)"><path
             d="m 0,0 c 0.053,1.374 0.362,2.702 0.548,4.052 0.288,2.095 0.615,4.182 0.929,6.272 0.297,1.974 0.601,3.946 0.899,5.92 0.238,1.578 0.486,3.155 0.7,4.738 0.072,0.533 0.183,0.82 0.742,0.811 2.53,-0.039 5.061,-0.017 7.65,-0.017 C 11.021,18.917 10.57,16.117 10.148,13.312 9.715,10.432 9.312,7.546 8.887,4.664 8.847,4.391 8.743,4.131 8.668,3.865 8.379,3.926 8.154,3.754 7.93,3.586 6.74,2.688 5.443,2.127 4.04,1.879 3.802,1.837 3.553,1.739 3.351,1.59 2.315,0.822 1.188,0.327 0,0"
             style="fill:#8c57a3;fill-opacity:1;fill-rule:nonzero;stroke:none"
             id="path220" /></g><g
           id="g222"
           transform="translate(147.333,12.9502)"><path
             d="m 0,0 c -0.573,-0.225 -1.167,-0.165 -1.755,-0.165 -3.181,-0.001 -6.362,0.003 -9.543,0.006 -0.301,1.05 -0.44,2.134 -0.446,3.236 -0.012,2.387 0.636,4.544 1.739,6.533 1.585,0.004 3.17,0.016 4.755,0.005 0.347,-0.002 0.511,0.029 0.566,0.546 0.139,1.299 0.391,2.582 0.598,3.872 0.508,0.066 1.015,0.166 1.525,0.191 2.347,0.117 4.422,-0.78 6.308,-2.352 C 3.658,11.773 3.575,11.666 3.48,11.575 0.305,8.538 -0.822,4.666 0,0"
             style="fill:#ea1f4a;fill-opacity:1;fill-rule:nonzero;stroke:none"
             id="path224" /></g><g
           id="g226"
           transform="translate(137.3284,22.56)"><path
             d="m 0,0 c -1.104,-1.989 -1.751,-4.145 -1.739,-6.533 0.006,-1.101 0.145,-2.186 0.446,-3.236 -3.868,-0.002 -7.737,-0.004 -11.605,-0.008 -0.39,0 -0.76,0.126 -1.127,0.251 -1.034,0.353 -1.211,1.661 -1.033,3.008 0.245,1.862 0.567,3.711 0.804,5.574 0.087,0.687 0.241,0.984 0.921,0.977 C -8.889,-0.013 -4.444,0.004 0,0"
             style="fill:#8c57a3;fill-opacity:1;fill-rule:nonzero;stroke:none"
             id="path228" /></g><g
           id="g230"
           transform="translate(151.0799,24.8223)"><path
             d="M 0,0 C -1.886,1.572 -3.961,2.469 -6.308,2.352 -6.818,2.327 -7.325,2.227 -7.833,2.16 c 0.25,1.478 0.374,2.983 0.731,4.436 0.4,-0.203 0.805,-0.118 1.212,-0.039 0.833,0.16 1.661,0.255 2.515,0.168 0.752,-0.077 1.493,-0.387 2.266,-0.18 0.704,0.189 1.425,0.226 2.145,0.246 C 1.061,5.865 0.81,4.987 0.683,4.088 0.49,2.724 0.257,1.368 0.042,0.009 0.042,0.009 0,0 0,0"
             style="fill:#8c57a3;fill-opacity:1;fill-rule:nonzero;stroke:none"
             id="path232" /></g><g
           id="g234"
           transform="translate(152.1161,31.6137)"><path
             d="m 0,0 c -0.72,-0.021 -1.441,-0.057 -2.145,-0.246 -0.774,-0.208 -1.514,0.102 -2.266,0.179 -0.854,0.087 -1.682,-0.007 -2.515,-0.168 -0.407,-0.078 -0.812,-0.164 -1.212,0.04 0.127,0.829 0.254,1.657 0.381,2.486 1.188,0.327 2.315,0.822 3.351,1.589 0.202,0.15 0.452,0.248 0.69,0.29 1.402,0.247 2.699,0.809 3.889,1.706 0.224,0.169 0.449,0.34 0.738,0.279 C 0.608,4.103 0.304,2.052 0,0"
             style="fill:#13b0ca;fill-opacity:1;fill-rule:nonzero;stroke:none"
             id="path236" /></g><g
           id="g238"
           transform="translate(151.0799,24.8223)"><path
             d="m 0,0 c 0,0 0.042,0.009 0.042,0.009 -0.158,-1.195 -0.3,-2.393 -0.476,-3.584 -0.23,-1.561 -0.439,-3.129 -0.747,-4.67 -0.241,-1.204 -0.471,-2.468 -1.44,-3.245 -0.329,-0.264 -0.698,-0.466 -1.126,-0.382 -0.822,4.666 0.305,8.538 3.48,11.575 C -0.172,-0.206 -0.089,-0.099 0,0"
             style="fill:#fdd703;fill-opacity:1;fill-rule:nonzero;stroke:none"
             id="path240" /></g><g
           id="g242"
           transform="translate(32.8738,13.0381)"><path
             d="m 0,0 c -0.979,-0.233 -1.97,-0.059 -2.954,-0.106 -0.412,-0.02 -0.824,-0.004 -1.236,-0.003 -0.8,0 -0.782,-0.004 -0.649,0.892 0.496,3.347 0.977,6.696 1.468,10.043 0.175,1.194 0.33,2.394 0.557,3.575 0.116,0.6 -0.004,0.76 -0.517,0.758 -3.234,-0.018 -6.468,-0.01 -9.701,-0.01 -0.808,0 -0.841,0.006 -0.724,0.915 0.312,2.443 0.615,4.889 1.004,7.316 0.18,1.128 0.641,2.125 1.751,2.407 0.628,-0.531 1.306,-0.983 1.873,-1.61 0.065,-0.036 0.13,-0.072 0.195,-0.108 l -0.01,0.011 c 0.676,-1.04 1.434,-2.012 1.908,-3.216 0.116,-0.296 0.335,-0.201 0.536,-0.142 1.104,0.329 2.226,0.394 3.357,0.314 1.597,-0.228 3.057,-0.88 4.404,-1.896 C 1.673,18.83 1.982,18.358 2.45,18.142 2.598,17.831 2.83,17.61 3.049,17.375 3.19,17.141 3.328,16.903 3.473,16.672 4.234,15.46 4.832,14.16 5.082,12.671 5.124,11.62 4.857,10.616 4.73,9.592 4.532,8.004 4.258,6.429 4.054,4.841 4.01,4.501 3.891,4.208 3.818,3.89 2.882,2.145 1.618,0.838 0,0"
             style="fill:#204280;fill-opacity:1;fill-rule:nonzero;stroke:none"
             id="path244" /></g><g
           id="g246"
           transform="translate(35.324,31.1802)"><path
             d="m 0,0 c -0.468,0.216 -0.777,0.687 -1.188,0.997 -1.347,1.016 -2.807,1.669 -4.403,1.896 -0.442,0.357 -0.946,0.565 -1.459,0.713 -0.644,0.185 -1.211,0.498 -1.758,0.945 -0.782,0.64 -1.618,1.192 -2.585,1.387 0,0 0.01,-0.012 0.01,-0.012 -0.065,0.037 -0.13,0.073 -0.195,0.109 -0.567,0.627 -1.246,1.079 -1.873,1.609 0.203,0.239 0.463,0.152 0.701,0.153 2.858,0.005 5.716,0.01 8.574,-0.004 0.456,-0.003 0.646,0.085 0.727,0.721 0.349,2.747 0.799,5.477 1.195,8.216 0.309,2.137 0.593,4.279 0.893,6.418 0.012,0.085 0.079,0.158 0.12,0.237 1.476,0.046 2.928,0.236 4.286,0.982 1.187,0.241 2.383,0.101 3.575,0.102 C 6.902,24.47 7.042,24.35 6.978,23.926 6.564,21.185 6.189,18.435 5.788,15.69 5.347,12.667 4.888,9.648 4.444,6.625 4.222,5.113 4.019,3.598 3.802,2.085 3.79,1.998 3.73,1.92 3.692,1.839 2.766,1.557 1.806,1.402 1.016,0.672 0.715,0.393 0.341,0.221 0,0"
             style="fill:#8c57a3;fill-opacity:1;fill-rule:nonzero;stroke:none"
             id="path248" /></g><g
           id="g250"
           transform="translate(35.324,31.1802)"><path
             d="m 0,0 c 0.341,0.221 0.715,0.393 1.016,0.672 0.79,0.73 1.75,0.885 2.676,1.167 C 3.526,0.663 3.361,-0.512 3.196,-1.687 2.351,-1.3 1.52,-0.86 0.599,-0.767 0.379,-0.532 0.148,-0.311 0,0"
             style="fill:#1baec8;fill-opacity:1;fill-rule:nonzero;stroke:none"
             id="path252" /></g><g
           id="g254"
           transform="translate(32.8738,13.0381)"><path
             d="M 0,0 C 1.618,0.838 2.882,2.145 3.818,3.89 3.952,3.187 3.656,2.535 3.637,1.846 3.627,1.434 3.426,1.022 3.443,0.617 3.47,-0.031 3.219,-0.159 2.745,-0.117 1.832,-0.035 0.909,-0.251 0,0"
             style="fill:#33ae67;fill-opacity:1;fill-rule:nonzero;stroke:none"
             id="path256" /></g><g
           id="g258"
           transform="translate(35.9232,30.4135)"><path
             d="M 0,0 C 0.921,-0.094 1.752,-0.534 2.597,-0.92 2.569,-2.214 2.347,-3.469 2.032,-4.705 1.782,-3.215 1.185,-1.915 0.424,-0.703 0.279,-0.472 0.141,-0.235 0,0"
             style="fill:#33ae67;fill-opacity:1;fill-rule:nonzero;stroke:none"
             id="path260" /></g><g
           id="g262"
           transform="translate(38.3688,55.5469)"><path
             d="m 0,0 c -1.358,-0.746 -2.81,-0.935 -4.286,-0.982 0.134,1.011 0.134,1.015 0.974,1.01 C -2.208,0.022 -1.104,0.01 0,0"
             style="fill:#1baec8;fill-opacity:1;fill-rule:nonzero;stroke:none"
             id="path264" /></g><g
           id="g266"
           transform="translate(19.1037,40.0061)"><path
             d="m 0,0 c -0.369,-2.499 -0.738,-4.998 -1.106,-7.497 -0.354,-2.407 -0.707,-4.814 -1.057,-7.222 -0.31,-2.127 -0.614,-4.255 -0.924,-6.382 -0.04,-0.281 -0.097,-0.559 -0.146,-0.838 -3.255,0.651 -5.681,2.621 -7.155,6.102 -0.193,1.132 0.173,2.193 0.324,3.277 0.37,2.662 0.77,5.318 1.181,7.971 0.085,0.55 0.035,1.149 0.348,1.636 1.212,1.34 2.65,2.218 4.229,2.805 C -2.877,0.154 -1.442,0.232 0,0"
             style="fill:#204280;fill-opacity:1;fill-rule:nonzero;stroke:none"
             id="path268" /></g><g
           id="g270"
           transform="translate(14.7979,39.8583)"><path
             d="m 0,0 c -1.58,-0.587 -3.017,-1.465 -4.229,-2.805 0.568,4.893 1.467,9.649 4.166,13.66 0.19,0.282 0.401,0.546 0.602,0.818 0.161,0.029 0.322,0.068 0.484,0.085 2.617,0.274 4.778,1.581 6.504,3.878 2.591,0.168 5.185,0.038 7.777,0.077 0.659,0.009 1.319,-0.03 1.976,0.011 0.467,0.03 0.648,-0.123 0.513,-0.678 -0.061,-0.251 -0.081,-0.516 -0.12,-0.775 -0.005,-0.058 -0.01,-0.116 -0.015,-0.173 l 0.003,0.008 c -0.59,-0.071 -1.07,-0.45 -1.577,-0.758 -0.524,-0.319 -0.953,-0.835 -1.567,-0.97 -1.123,-0.247 -2.2,-0.691 -3.116,-1.482 C 9.842,9.551 8.382,8.048 6.668,6.955 6.562,6.887 6.473,6.777 6.386,6.676 5.557,5.713 4.667,4.867 3.605,4.242 2.761,3.745 2.099,2.936 1.455,2.116 0.928,1.445 0.655,0.545 0,0"
             style="fill:#13b0ca;fill-opacity:1;fill-rule:nonzero;stroke:none"
             id="path272" /></g><g
           id="g274"
           transform="translate(14.7979,39.8583)"><path
             d="m 0,0 c 0.655,0.545 0.928,1.445 1.455,2.116 0.644,0.82 1.306,1.629 2.15,2.126 1.062,0.625 1.952,1.471 2.781,2.434 0.087,0.101 0.176,0.211 0.282,0.279 1.714,1.093 3.174,2.596 4.733,3.941 0.916,0.791 1.993,1.235 3.116,1.482 0.614,0.135 1.043,0.651 1.567,0.97 0.507,0.308 0.987,0.687 1.577,0.758 C 17.484,12.728 17.31,11.35 17.126,9.973 17.026,9.228 16.904,8.486 16.797,7.742 16.73,7.28 16.606,7.016 16.101,7.027 14.042,7.071 11.98,7.089 9.921,7.03 8.47,6.988 7.13,6.454 6.187,5.095 5.418,3.986 4.879,2.702 4.56,1.31 4.472,0.924 4.39,0.535 4.306,0.148 2.863,0.38 1.429,0.302 0,0"
             style="fill:#8b58a3;fill-opacity:1;fill-rule:nonzero;stroke:none"
             id="path276" /></g><g
           id="g278"
           transform="translate(8.7155,24.1695)"><path
             d="m 0,0 c 1.475,-3.482 3.9,-5.451 7.156,-6.103 -0.079,-0.46 -0.013,-0.955 -0.244,-1.379 -2.987,0.373 -5.335,1.999 -7.052,4.866 -0.105,0.175 -0.212,0.348 -0.318,0.522 0.083,0.664 0.162,1.328 0.256,1.99 C -0.195,-0.058 -0.07,-0.034 0,0"
             style="fill:#33ae67;fill-opacity:1;fill-rule:nonzero;stroke:none"
             id="path280" /></g><g
           id="g282"
           transform="translate(22.3251,55.4947)"><path
             d="m 0,0 c -1.726,-2.298 -3.887,-3.605 -6.504,-3.879 -0.162,-0.017 -0.323,-0.056 -0.484,-0.085 1.091,1.625 2.566,2.591 4.193,3.277 C -1.896,-0.307 -0.982,0.05 0,0"
             style="fill:#fdd703;fill-opacity:1;fill-rule:nonzero;stroke:none"
             id="path284" /></g><g
           id="g286"
           transform="translate(32.4555,53.9559)"><path
             d="M 0,0 C 0.005,0.058 0.01,0.115 0.016,0.173 0.104,0.104 0.109,0.045 0,0"
             style="fill:#8b58a3;fill-opacity:1;fill-rule:nonzero;stroke:none"
             id="path288" /></g><g
           id="g290"
           transform="translate(247.5634,47.0441)"><path
             d="m 0,0 c -0.2,-1.337 -0.402,-2.674 -0.599,-4.012 -0.278,-1.895 -0.554,-3.789 -0.827,-5.684 -0.263,-1.827 -0.517,-3.656 -0.781,-5.482 -0.308,-2.127 -0.622,-4.253 -0.933,-6.379 -0.262,0.228 -0.567,0.241 -0.878,0.269 -0.573,0.053 -1.156,0.081 -1.711,0.235 -1.767,0.487 -3.433,1.445 -5.287,1.533 0.068,1.465 0.372,2.888 0.562,4.331 0.214,1.619 0.471,3.229 0.709,4.843 0.27,1.822 0.542,3.643 0.81,5.464 0.268,1.823 0.53,3.646 0.798,5.468 0.085,0.577 0.177,1.151 0.266,1.727 C -6.749,2.263 -5.682,1.929 -4.67,1.385 -4.197,1.13 -3.724,0.943 -3.204,0.912 -2.086,0.847 -1.029,0.491 0,0"
             style="fill:#37b563;fill-opacity:1;fill-rule:nonzero;stroke:none"
             id="path292" /></g><g
           id="g294"
           transform="translate(236.5479,27.5239)"><path
             d="M 0,0 C 1.854,-0.087 3.52,-1.045 5.286,-1.533 5.842,-1.687 6.425,-1.715 6.997,-1.767 7.309,-1.796 7.613,-1.809 7.875,-2.037 7.324,-5.848 6.772,-9.659 6.223,-13.471 6.2,-13.635 6.226,-13.809 6.2,-13.972 c -0.063,-0.397 -0.185,-0.642 -0.627,-0.636 -2.428,0.032 -4.856,0.016 -7.284,0.014 -0.319,-0.001 -0.491,-0.044 -0.4,0.533 0.47,2.992 0.851,6.002 1.289,9.001 C -0.574,-3.368 -0.276,-1.686 0,0"
             style="fill:#8c57a3;fill-opacity:1;fill-rule:nonzero;stroke:none"
             id="path296" /></g><g
           id="g298"
           transform="translate(240.0045,51.0781)"><path
             d="M 0,0 C 0.186,1.343 0.371,2.687 0.557,4.03 0.602,4.36 0.739,4.504 1.053,4.502 3.461,4.487 5.869,4.488 8.277,4.501 8.663,4.503 8.692,4.366 8.625,3.949 8.364,2.307 8.151,0.655 7.92,-0.994 7.57,-1.062 7.234,-1.013 6.892,-0.894 5.743,-0.491 4.554,-0.275 3.373,-0.483 2.187,-0.692 1.123,-0.153 0,0"
             style="fill:#13b0ca;fill-opacity:1;fill-rule:nonzero;stroke:none"
             id="path300" /></g><g
           id="g302"
           transform="translate(240.0045,51.0781)"><path
             d="M 0,0 C 1.123,-0.153 2.187,-0.692 3.373,-0.483 4.554,-0.275 5.743,-0.491 6.892,-0.894 7.234,-1.013 7.57,-1.062 7.92,-0.994 7.911,-2.025 7.612,-3.01 7.559,-4.034 6.53,-3.543 5.473,-3.187 4.355,-3.122 3.835,-3.091 3.362,-2.904 2.889,-2.649 1.877,-2.104 0.81,-1.771 -0.312,-1.721 -0.224,-1.144 -0.245,-0.539 0,0"
             style="fill:#8b58a3;fill-opacity:1;fill-rule:nonzero;stroke:none"
             id="path304" /></g><g
           id="g306"
           transform="translate(159.6425,40.1018)"><path
             d="m 0,0 c 0.033,1.271 0.302,2.503 0.472,3.75 0.285,2.097 0.621,4.185 0.927,6.279 0.255,1.745 0.505,3.491 0.739,5.24 0.036,0.262 0.139,0.308 0.324,0.308 2.635,-0.002 5.269,-10e-4 7.907,-10e-4 C 9.802,11.52 9.252,7.517 8.662,3.522 8.618,3.222 8.676,2.841 8.44,2.585 6.893,2.255 5.313,2.111 3.857,1.306 3.341,1.02 2.749,0.908 2.173,0.899 1.351,0.885 0.674,0.464 0,0"
             style="fill:#8c57a3;fill-opacity:1;fill-rule:nonzero;stroke:none"
             id="path308" /></g><g
           id="g310"
           transform="translate(164.998,21.1125)"><path
             d="m 0,0 c -0.074,-1.454 -0.378,-2.866 -0.561,-4.301 -0.13,-1.017 -0.318,-2.025 -0.417,-3.045 -0.059,-0.618 -0.209,-0.87 -0.804,-0.858 -2.347,0.047 -4.695,0.02 -7.043,0.019 -0.342,0 -0.608,-0.14 -0.483,0.601 0.452,2.683 0.771,5.396 1.152,8.095 0.241,1.705 0.503,3.407 0.755,5.11 C -6.996,5.545 -6.585,5.499 -6.188,5.389 -3.459,4.634 -1.439,2.767 0,0"
             style="fill:#fdd703;fill-opacity:1;fill-rule:nonzero;stroke:none"
             id="path312" /></g><g
           id="g314"
           transform="translate(159.6425,40.1018)"><path
             d="M 0,0 C 0.674,0.464 1.351,0.885 2.173,0.899 2.749,0.908 3.341,1.02 3.857,1.306 5.313,2.111 6.893,2.255 8.44,2.585 7.91,-1.092 7.38,-4.768 6.849,-8.444 6.564,-8.482 6.28,-8.529 5.995,-8.555 4.997,-8.643 4.017,-8.886 2.996,-8.628 c -1.009,0.255 -2.041,0.12 -3.06,-0.098 -0.397,-0.085 -0.817,-0.171 -1.2,0.109 C -0.843,-5.745 -0.421,-2.872 0,0"
             style="fill:#13b0ca;fill-opacity:1;fill-rule:nonzero;stroke:none"
             id="path316" /></g><g
           id="g318"
           transform="translate(158.3784,31.4846)"><path
             d="m 0,0 c 0.383,-0.28 0.803,-0.194 1.2,-0.109 1.019,0.218 2.051,0.354 3.06,0.098 1.021,-0.258 2.001,-0.015 2.999,0.074 0.285,0.025 0.57,0.073 0.854,0.11 -0.084,-1.788 -0.466,-3.525 -0.679,-5.291 -0.2,-1.655 -0.461,-3.3 -0.692,-4.95 -0.017,-0.119 -0.015,-0.239 -0.122,-0.304 -1.44,2.767 -3.459,4.633 -6.188,5.389 -0.398,0.11 -0.808,0.156 -1.213,0.232 0.201,1.338 0.415,2.674 0.591,4.016 0.035,0.266 0.098,0.5 0.19,0.735"
             style="fill:#8c57a3;fill-opacity:1;fill-rule:nonzero;stroke:none"
             id="path320" /></g><g
           id="g322"
           transform="translate(50.4972,23.2991)"><path
             d="m 0,0 c -0.093,-0.646 0.177,-0.806 0.679,-0.736 0.298,0.041 0.605,-0.007 0.908,-0.014 0.816,-0.532 1.462,-1.382 2.411,-1.671 1.187,-0.361 2.252,-1.028 3.216,-1.906 0.281,-0.256 0.58,-0.451 0.922,-0.551 1.13,-0.331 2.151,-0.932 3.1,-1.703 0.275,-0.224 0.564,-0.384 0.89,-0.465 1.118,-0.275 2.174,-0.755 3.103,-1.521 0.776,-0.64 1.559,-1.226 2.48,-1.528 -0.561,-0.381 -1.198,-0.405 -1.806,-0.407 -7.284,-0.021 -14.569,-0.013 -21.853,-0.015 -0.428,0 -0.834,0.121 -1.24,0.256 -1.053,0.35 -1.197,1.732 -1.033,2.994 0.245,1.875 0.527,3.745 0.829,5.609 0.263,1.626 0.354,3.302 0.987,4.826 0.024,0.058 0.076,0.101 0.115,0.152 0.278,-0.254 0.59,-0.397 0.94,-0.481 1.317,-0.316 2.54,-0.915 3.614,-1.852 C -1.202,0.52 -0.65,0.161 0,0"
             style="fill:#37b563;fill-opacity:1;fill-rule:nonzero;stroke:none"
             id="path324" /></g><g
           id="g326"
           transform="translate(68.2061,13.2042)"><path
             d="m 0,0 c -0.921,0.302 -1.704,0.888 -2.48,1.528 -0.929,0.766 -1.985,1.246 -3.103,1.521 -0.326,0.081 -0.615,0.241 -0.89,0.465 -0.949,0.771 -1.97,1.372 -3.1,1.703 -0.342,0.1 -0.641,0.295 -0.922,0.551 -0.964,0.878 -2.029,1.545 -3.216,1.906 -0.948,0.289 -1.595,1.139 -2.411,1.67 3.296,0.008 6.592,0.034 9.888,0.006 0.567,-0.005 0.721,0.238 0.793,0.828 0.179,1.471 0.403,2.936 0.63,4.399 0.05,0.317 0.149,0.57 0.557,0.565 2.451,-0.034 4.903,-0.018 7.354,-0.015 0.328,10e-4 0.487,0.03 0.391,-0.539 C 2.904,11.093 2.385,7.583 1.84,4.079 1.676,3.03 1.438,2.008 0.989,1.065 0.758,0.579 0.486,0.158 0,0"
             style="fill:#8c57a3;fill-opacity:1;fill-rule:nonzero;stroke:none"
             id="path328" /></g><g
           id="g330"
           transform="translate(50.4972,23.2991)"><path
             d="m 0,0 c -0.65,0.161 -1.202,0.52 -1.738,0.987 -1.074,0.937 -2.297,1.536 -3.614,1.852 -0.35,0.084 -0.662,0.227 -0.94,0.481 0.282,0.946 0.938,1.371 1.713,1.402 C -2.942,4.788 -1.3,4.738 0.339,4.746 0.686,4.748 0.773,4.691 0.68,4.217 0.406,2.824 0.22,1.407 0,0"
             style="fill:#8b58a3;fill-opacity:1;fill-rule:nonzero;stroke:none"
             id="path332" /></g><g
           id="g334"
           transform="translate(125.079,34.9085)"><path
             d="m 0,0 c 0.167,1.26 0.32,2.523 0.503,3.779 0.36,2.469 0.737,4.934 1.11,7.4 0.01,0.064 0.062,0.119 0.094,0.179 2.346,2.934 5.222,4.187 8.647,3.702 C 10.213,13.455 9.932,11.877 9.697,10.289 9.303,7.626 8.91,4.964 8.513,2.301 8.166,-0.034 7.813,-2.369 7.465,-4.704 7.357,-5.428 7.254,-6.153 7.149,-6.877 6.063,-6.524 4.993,-6.139 4.013,-5.45 2.156,-4.144 0.896,-2.257 0,0"
             style="fill:#204280;fill-opacity:1;fill-rule:nonzero;stroke:none"
             id="path336" /></g><g
           id="g338"
           transform="translate(125.079,34.9085)"><path
             d="m 0,0 c 0.896,-2.257 2.156,-4.144 4.013,-5.45 0.98,-0.689 2.05,-1.074 3.136,-1.427 -0.158,-0.994 -0.341,-1.985 -0.463,-2.985 -0.047,-0.378 -0.164,-0.462 -0.462,-0.461 -2.469,0.01 -4.939,0.015 -7.408,-0.003 -0.389,-0.003 -0.39,0.114 -0.328,0.52 0.481,3.133 0.928,6.272 1.39,9.409 0.02,0.136 0.08,0.265 0.122,0.397"
             style="fill:#8c57a3;fill-opacity:1;fill-rule:nonzero;stroke:none"
             id="path340" /></g><g
           id="g342"
           transform="translate(127.4122,50.2409)"><path
             d="M 0,0 C 0.245,1.644 0.502,3.285 0.724,4.933 0.773,5.303 0.926,5.334 1.175,5.334 3.579,5.329 5.982,5.322 8.386,5.34 8.784,5.343 8.828,5.138 8.77,4.775 8.713,4.423 8.664,4.07 8.611,3.717 7.459,3.295 6.32,2.841 5.293,2.071 5.129,1.948 4.907,1.905 4.707,1.875 3.408,1.682 2.204,1.183 1.082,0.401 0.752,0.171 0.426,-0.106 0,0"
             style="fill:#13b0ca;fill-opacity:1;fill-rule:nonzero;stroke:none"
             id="path344" /></g><g
           id="g346"
           transform="translate(127.4122,50.2409)"><path
             d="m 0,0 c 0.426,-0.106 0.752,0.171 1.082,0.401 1.122,0.782 2.326,1.281 3.625,1.474 0.2,0.03 0.422,0.073 0.586,0.196 C 6.32,2.841 7.459,3.295 8.611,3.717 8.617,2.7 8.333,1.733 8.215,0.737 8.177,0.411 8.288,0.005 8.021,-0.273 4.596,0.212 1.72,-1.04 -0.626,-3.974 -0.459,-2.641 -0.384,-1.288 0,0"
             style="fill:#8b58a3;fill-opacity:1;fill-rule:nonzero;stroke:none"
             id="path348" /></g><g
           id="g350"
           transform="translate(106.5271,18.819)"><path
             d="m 0,0 c -0.205,1.676 -0.43,3.349 -0.606,5.029 -0.08,0.772 -0.1,1.551 -0.253,2.314 -0.058,0.29 0.123,0.296 0.299,0.296 2.594,0 5.189,-0.005 7.783,0.007 C 7.537,7.647 7.618,7.414 7.645,7.165 7.785,5.902 7.896,4.635 8.032,3.371 8.094,2.791 8.188,2.215 8.267,1.637 8.16,1.567 8.05,1.504 7.947,1.428 5.478,-0.406 2.829,-0.883 0,0"
             style="fill:#ea1f4a;fill-opacity:1;fill-rule:nonzero;stroke:none"
             id="path352" /></g><g
           id="g354"
           transform="translate(106.5271,18.819)"><path
             d="M 0,0 C 2.829,-0.883 5.478,-0.406 7.947,1.428 8.05,1.504 8.16,1.567 8.267,1.637 8.376,0.2 8.538,-1.228 8.732,-2.653 8.852,-3.54 8.92,-4.437 9.019,-5.328 9.066,-5.762 8.93,-5.905 8.544,-5.901 6.547,-5.88 4.549,-5.896 2.551,-5.888 1.669,-5.885 1.112,-5.291 0.786,-4.41 0.373,-3.297 0.187,-2.113 0.114,-0.904 0.095,-0.601 0.039,-0.301 0,0"
             style="fill:#8c57a3;fill-opacity:1;fill-rule:nonzero;stroke:none"
             id="path356" /></g><g
           id="g358"
           transform="translate(228.7952,52.2309)"><path
             d="M 0,0 C 0.07,-0.036 0.14,-0.072 0.209,-0.108 0.139,-0.072 0.07,-0.036 0,0"
             style="fill:#33ae67;fill-opacity:1;fill-rule:nonzero;stroke:none"
             id="path360" /></g><g
           id="g362"
           transform="translate(103.5413,47.4682)"><path
             d="M 0,0 C -0.155,-0.397 -0.459,-0.257 -0.72,-0.271 -0.504,-0.096 -0.258,-0.025 0,0"
             style="fill:#1baec8;fill-opacity:1;fill-rule:nonzero;stroke:none"
             id="path364" /></g><g
           id="g366"
           transform="translate(105.8929,48.9041)"><path
             d="M 0,0 C -0.003,-0.283 -0.17,-0.282 -0.343,-0.269 -0.263,-0.12 -0.152,-0.025 0,0"
             style="fill:#1baec8;fill-opacity:1;fill-rule:nonzero;stroke:none"
             id="path368" /></g><g
           id="g370"
           transform="translate(109.4799,54.8073)"><path
             d="M 0,0 C 0.006,-0.153 0.033,-0.313 -0.111,-0.411 -0.12,-0.257 -0.109,-0.111 0,0"
             style="fill:#1baec8;fill-opacity:1;fill-rule:nonzero;stroke:none"
             id="path372" /></g><g
           id="g374"
           transform="translate(104.9013,48.1884)"><path
             d="M 0,0 C -0.036,-0.106 -0.11,-0.135 -0.2,-0.13 -0.16,-0.03 -0.092,0.01 0,0"
             style="fill:#1baec8;fill-opacity:1;fill-rule:nonzero;stroke:none"
             id="path376" /></g><g
           id="g378"
           transform="translate(107.8779,51.1638)"><path
             d="M 0,0 C -0.002,-0.108 -0.036,-0.189 -0.132,-0.221 -0.131,-0.112 -0.086,-0.04 0,0"
             style="fill:#1baec8;fill-opacity:1;fill-rule:nonzero;stroke:none"
             id="path380" /></g><g
           id="g382"
           transform="translate(109.116,53.6239)"><path
             d="M 0,0 C -0.032,-0.079 -0.063,-0.157 -0.095,-0.236 -0.113,-0.13 -0.076,-0.055 0,0"
             style="fill:#1baec8;fill-opacity:1;fill-rule:nonzero;stroke:none"
             id="path384" /></g><g
           id="g386"
           transform="translate(104.4039,47.8906)"><path
             d="M 0,0 C -0.043,-0.109 -0.124,-0.126 -0.215,-0.118 -0.17,-0.011 -0.093,0.014 0,0"
             style="fill:#1baec8;fill-opacity:1;fill-rule:nonzero;stroke:none"
             id="path388" /></g><g
           id="g390"
           transform="translate(109.5936,55.2798)"><path
             d="M 0,0 C 0.016,-0.118 0.01,-0.229 -0.081,-0.31 -0.097,-0.191 -0.088,-0.082 0,0"
             style="fill:#1baec8;fill-opacity:1;fill-rule:nonzero;stroke:none"
             id="path392" /></g><g
           id="g394"
           transform="translate(103.7894,47.5863)"><path
             d="M 0,0 C -0.047,-0.096 -0.123,-0.113 -0.208,-0.104 -0.159,-0.015 -0.092,0.026 0,0"
             style="fill:#1baec8;fill-opacity:1;fill-rule:nonzero;stroke:none"
             id="path396" /></g><g
           id="g398"
           transform="translate(104.6501,48.0291)"><path
             d="M 0,0 C -0.038,-0.107 -0.116,-0.122 -0.202,-0.114 -0.163,-0.008 -0.09,0.016 0,0"
             style="fill:#1baec8;fill-opacity:1;fill-rule:nonzero;stroke:none"
             id="path400" /></g><g
           id="g402"
           transform="translate(105.1501,48.345)"><path
             d="M 0,0 C -0.041,-0.12 -0.124,-0.147 -0.223,-0.14 -0.178,-0.03 -0.101,0.011 0,0"
             style="fill:#1baec8;fill-opacity:1;fill-rule:nonzero;stroke:none"
             id="path404" /></g><g
           id="g406"
           transform="translate(105.5188,48.6157)"><path
             d="M 0,0 C -0.03,-0.104 -0.1,-0.131 -0.184,-0.129 -0.151,-0.032 -0.09,0.012 0,0"
             style="fill:#1baec8;fill-opacity:1;fill-rule:nonzero;stroke:none"
             id="path408" /></g><g
           id="g410"
           transform="translate(104.1584,47.7556)"><path
             d="M 0,0 C -0.052,-0.12 -0.142,-0.134 -0.242,-0.117 -0.186,-0.01 -0.1,0.014 0,0"
             style="fill:#1baec8;fill-opacity:1;fill-rule:nonzero;stroke:none"
             id="path412" /></g><g
           id="g414"
           transform="translate(108.2483,51.7527)"><path
             d="M 0,0 C 0,-0.109 -0.03,-0.196 -0.126,-0.236 -0.127,-0.126 -0.089,-0.045 0,0"
             style="fill:#1baec8;fill-opacity:1;fill-rule:nonzero;stroke:none"
             id="path416" /></g><g
           id="g418"
           transform="translate(108.6204,52.4683)"><path
             d="M 0,0 C 0.001,-0.102 -0.021,-0.19 -0.113,-0.23 -0.12,-0.124 -0.086,-0.045 0,0"
             style="fill:#1baec8;fill-opacity:1;fill-rule:nonzero;stroke:none"
             id="path420" /></g><g
           id="g422"
           transform="translate(109.3595,54.3633)"><path
             d="M 0,0 C -0.029,-0.085 -0.059,-0.17 -0.088,-0.255 -0.106,-0.148 -0.078,-0.062 0,0"
             style="fill:#1baec8;fill-opacity:1;fill-rule:nonzero;stroke:none"
             id="path424" /></g><g
           id="g426"
           transform="translate(109.2312,53.95)"><path
             d="M 0,0 C 0.008,-0.112 -0.006,-0.213 -0.1,-0.274 -0.111,-0.16 -0.09,-0.063 0,0"
             style="fill:#1baec8;fill-opacity:1;fill-rule:nonzero;stroke:none"
             id="path428" /></g><g
           id="g430"
           transform="translate(106.1308,49.1358)"><path
             d="m 0,0 c -0.011,-0.035 -0.032,-0.057 -0.064,-0.063 0,0 0.013,0.058 0.013,0.058 z"
             style="fill:#1baec8;fill-opacity:1;fill-rule:nonzero;stroke:none"
             id="path432" /></g><g
           id="g434"
           transform="translate(106.3864,49.3512)"><path
             d="M 0,0 C -0.046,-0.042 -0.092,-0.084 -0.138,-0.125 -0.092,-0.083 -0.046,-0.042 0,0"
             style="fill:#1baec8;fill-opacity:1;fill-rule:nonzero;stroke:none"
             id="path436" /></g><g
           id="g438"
           transform="translate(106.5092,49.4769)"><path
             d="M 0,0 C -0.038,-0.039 -0.076,-0.079 -0.114,-0.118 -0.076,-0.079 -0.038,-0.039 0,0"
             style="fill:#1baec8;fill-opacity:1;fill-rule:nonzero;stroke:none"
             id="path440" /></g><g
           id="g442"
           transform="translate(106.6313,49.6126)"><path
             d="M 0,0 C -0.033,-0.037 -0.066,-0.073 -0.1,-0.11 -0.066,-0.073 -0.033,-0.037 0,0"
             style="fill:#1baec8;fill-opacity:1;fill-rule:nonzero;stroke:none"
             id="path444" /></g><g
           id="g446"
           transform="translate(106.8756,49.8762)"><path
             d="M 0,0 C -0.01,-0.045 -0.035,-0.073 -0.074,-0.083 -0.049,-0.055 -0.025,-0.028 0,0"
             style="fill:#1baec8;fill-opacity:1;fill-rule:nonzero;stroke:none"
             id="path448" /></g><g
           id="g450"
           transform="translate(106.9984,50.0074)"><path
             d="m 0,0 c -0.008,-0.036 -0.027,-0.058 -0.058,-0.066 0.001,0 0.01,0.056 0.01,0.056 z"
             style="fill:#1baec8;fill-opacity:1;fill-rule:nonzero;stroke:none"
             id="path452" /></g><g
           id="g454"
           transform="translate(106.0113,49.0177)"><path
             d="M 0,0 C -0.03,-0.03 -0.06,-0.059 -0.09,-0.089 -0.06,-0.059 -0.03,-0.029 0,0"
             style="fill:#1baec8;fill-opacity:1;fill-rule:nonzero;stroke:none"
             id="path456" /></g><g
           id="g458"
           transform="translate(107.1231,50.1572)"><path
             d="m 0,0 c -0.008,-0.039 -0.029,-0.063 -0.062,-0.073 0,0.001 0.01,0.061 0.01,0.061 z"
             style="fill:#1baec8;fill-opacity:1;fill-rule:nonzero;stroke:none"
             id="path460" /></g><g
           id="g462"
           transform="translate(107.2491,50.3073)"><path
             d="m 0,0 c -0.009,-0.041 -0.03,-0.067 -0.065,-0.078 0.001,0 0.012,0.062 0.012,0.062 z"
             style="fill:#1baec8;fill-opacity:1;fill-rule:nonzero;stroke:none"
             id="path464" /></g><g
           id="g466"
           transform="translate(107.3736,50.4623)"><path
             d="M 0,0 C -0.01,-0.048 -0.035,-0.079 -0.076,-0.092 -0.051,-0.061 -0.025,-0.031 0,0"
             style="fill:#1baec8;fill-opacity:1;fill-rule:nonzero;stroke:none"
             id="path468" /></g><g
           id="g470"
           transform="translate(107.9916,51.3248)"><path
             d="M 0,0 C -0.008,-0.046 -0.032,-0.076 -0.07,-0.09 -0.047,-0.06 -0.023,-0.03 0,0"
             style="fill:#1baec8;fill-opacity:1;fill-rule:nonzero;stroke:none"
             id="path472" /></g><g
           id="g474"
           transform="translate(108.7282,52.6806)"><path
             d="M 0,0 C -0.028,-0.051 -0.056,-0.103 -0.084,-0.154 -0.056,-0.103 -0.028,-0.051 0,0"
             style="fill:#1baec8;fill-opacity:1;fill-rule:nonzero;stroke:none"
             id="path476" /></g><g
           id="g478"
           transform="translate(107.7454,50.9411)"><path
             d="M 0,0 C -0.036,-0.048 -0.073,-0.096 -0.109,-0.144 -0.073,-0.096 -0.036,-0.048 0,0"
             style="fill:#1baec8;fill-opacity:1;fill-rule:nonzero;stroke:none"
             id="path480" /></g><g
           id="g482"
           transform="translate(108.1175,51.5093)"><path
             d="M 0,0 C -0.031,-0.044 -0.061,-0.088 -0.091,-0.132 -0.061,-0.088 -0.03,-0.044 0,0"
             style="fill:#1baec8;fill-opacity:1;fill-rule:nonzero;stroke:none"
             id="path484" /></g><g
           id="g486"
           transform="translate(106.7539,49.7385)"><path
             d="M 0,0 C -0.013,-0.049 -0.04,-0.078 -0.083,-0.089 -0.055,-0.059 -0.028,-0.029 0,0"
             style="fill:#1baec8;fill-opacity:1;fill-rule:nonzero;stroke:none"
             id="path488" /></g><g
           id="g490"
           transform="translate(108.3588,51.9496)"><path
             d="M 0,0 C -0.028,-0.048 -0.056,-0.095 -0.085,-0.143 -0.056,-0.095 -0.028,-0.048 0,0"
             style="fill:#1baec8;fill-opacity:1;fill-rule:nonzero;stroke:none"
             id="path492" /></g><g
           id="g494"
           transform="translate(105.2679,48.4449)"><path
             d="M 0,0 C -0.036,-0.031 -0.073,-0.062 -0.109,-0.093 -0.072,-0.062 -0.036,-0.031 0,0"
             style="fill:#1baec8;fill-opacity:1;fill-rule:nonzero;stroke:none"
             id="path496" /></g><g
           id="g498"
           transform="translate(107.6233,50.778)"><path
             d="M 0,0 C -0.032,-0.041 -0.065,-0.081 -0.097,-0.121 -0.064,-0.081 -0.032,-0.04 0,0"
             style="fill:#1baec8;fill-opacity:1;fill-rule:nonzero;stroke:none"
             id="path500" /></g><g
           id="g502"
           transform="translate(108.4888,52.2047)"><path
             d="M 0,0 C -0.006,-0.05 -0.028,-0.085 -0.067,-0.106 -0.044,-0.07 -0.022,-0.035 0,0"
             style="fill:#1baec8;fill-opacity:1;fill-rule:nonzero;stroke:none"
             id="path504" /></g><g
           id="g506"
           transform="translate(107.4978,50.6227)"><path
             d="M 0,0 C -0.029,-0.037 -0.058,-0.074 -0.087,-0.11 -0.058,-0.073 -0.029,-0.037 0,0"
             style="fill:#1baec8;fill-opacity:1;fill-rule:nonzero;stroke:none"
             id="path508" /></g><g
           id="g510"
           transform="translate(23.9307,37.1182)"><path
             d="M 0,0 C 0.967,-0.195 1.804,-0.747 2.585,-1.387 3.132,-1.834 3.7,-2.147 4.344,-2.332 4.856,-2.48 5.36,-2.688 5.802,-3.045 4.67,-2.964 3.548,-3.029 2.444,-3.358 2.243,-3.418 2.025,-3.512 1.908,-3.216 1.434,-2.012 0.676,-1.04 0,0"
             style="fill:#33ae67;fill-opacity:1;fill-rule:nonzero;stroke:none"
             id="path512" /></g><g
           id="g514"
           transform="translate(23.7458,37.2151)"><path
             d="M 0,0 C 0.065,-0.036 0.13,-0.072 0.195,-0.108 0.13,-0.072 0.065,-0.036 0,0"
             style="fill:#33ae67;fill-opacity:1;fill-rule:nonzero;stroke:none"
             id="path516" /></g></g></g></g></svg>
